<?xml version="1.0" standalone="no"?>
<!DOCTYPE svg PUBLIC "-//W3C//DTD SVG 20010904//EN"
 "http://www.w3.org/TR/2001/REC-SVG-20010904/DTD/svg10.dtd">
<svg version="1.0" xmlns="http://www.w3.org/2000/svg"
 width="300.000000pt" height="200.000000pt" viewBox="0 0 300.000000 200.000000"
 preserveAspectRatio="xMidYMid meet">
<metadata>
Created by potrace 1.10, written by Peter Selinger 2001-2011
</metadata>
<g transform="translate(0.000000,200.000000) scale(0.050000,-0.050000)"
fill="#ee2025" stroke="none">
<path d="M1920 3982 c0 -10 -6 -34 -13 -54 -10 -23 -6 -30 10 -20 15 10 23 -3
23 -37 0 -28 -10 -51 -23 -51 -13 0 -18 -6 -11 -13 25 -25 -31 -67 -88 -67
-32 0 -58 -9 -58 -20 0 -11 -13 -20 -30 -20 -16 0 -56 -38 -89 -85 -33 -47
-78 -105 -101 -131 -118 -127 -138 -343 -37 -385 35 -15 53 -30 39 -35 -15 -5
1 -25 38 -47 34 -21 72 -32 84 -25 12 8 17 2 13 -12 -9 -27 -100 -70 -92 -43
7 22 -90 133 -131 149 -20 8 -31 5 -25 -5 7 -10 1 -25 -11 -32 -69 -43 -67
190 3 303 54 87 45 86 -73 -11 -113 -94 -119 -93 -126 34 -2 43 -7 49 -22 25
-16 -25 -19 -22 -20 13 0 23 -14 48 -32 55 -18 7 -27 25 -21 42 6 16 5 29 -3
27 -54 -8 -85 10 -96 55 -8 33 -19 43 -28 28 -10 -17 -18 -15 -26 7 -10 25
-22 26 -72 8 -63 -24 -78 -217 -23 -284 11 -14 15 -31 7 -38 -7 -7 -3 -13 10
-13 13 0 19 -24 15 -59 -6 -47 -1 -56 24 -46 25 9 28 1 18 -42 -12 -44 -7 -53
27 -53 23 0 40 -13 40 -31 0 -17 7 -28 15 -23 20 11 85 -59 69 -75 -7 -7 2 -7
21 0 32 12 31 18 -3 86 -20 40 -44 96 -52 123 -27 93 -153 370 -174 383 -12 7
-15 23 -7 36 16 26 71 -8 71 -44 0 -12 41 -68 91 -127 49 -58 104 -138 120
-177 49 -118 152 -213 245 -225 69 -9 78 -15 54 -38 -15 -16 -42 -22 -62 -15
-23 9 -30 6 -20 -9 8 -14 -6 -28 -37 -36 -28 -7 -45 -22 -38 -33 8 -13 4 -15
-10 -7 -13 8 -18 23 -12 34 6 10 -3 24 -20 30 -17 7 -31 25 -31 40 0 15 -10
28 -22 28 -12 0 -17 14 -11 30 7 17 3 30 -8 30 -60 0 19 -181 97 -223 39 -21
41 -27 14 -42 -17 -10 -26 -25 -20 -35 6 -9 -5 -29 -25 -44 -22 -16 -35 -52
-35 -99 0 -40 -6 -70 -13 -65 -7 4 -18 -6 -24 -22 -12 -30 114 -110 174 -110
20 0 28 -21 26 -68 -2 -38 2 -65 8 -61 6 3 28 -24 48 -62 21 -38 49 -69 64
-69 15 0 27 -8 27 -18 0 -34 98 -38 105 -4 4 18 9 -10 11 -62 1 -51 16 -127
33 -167 17 -40 29 -120 28 -176 -2 -57 6 -137 18 -179 13 -43 18 -88 13 -103
-12 -31 73 -169 106 -170 31 -1 19 141 -23 257 -29 82 -46 424 -19 397 6 -6
15 -89 19 -183 7 -147 63 -368 67 -267 1 19 11 35 22 35 13 0 16 -41 7 -111
-11 -95 -6 -120 30 -169 26 -35 35 -63 22 -70 -23 -15 -19 -148 6 -163 9 -6 8
-21 -2 -34 -29 -35 -41 -307 -20 -442 20 -126 123 -315 238 -435 l58 -61 -5
61 c-2 33 -8 60 -14 60 -39 -3 -41 10 -9 49 21 25 25 34 10 21 -22 -20 -33
-14 -55 29 -20 38 -22 56 -6 62 15 5 14 17 -4 38 -23 28 -21 29 19 3 25 -15
45 -34 45 -43 0 -8 9 -15 20 -15 11 0 18 11 15 25 -3 14 6 24 20 23 14 -1 43
-3 65 -5 29 -2 40 -18 41 -58 2 -49 4 -50 19 -15 9 22 18 31 19 19 2 -33 126
-72 150 -48 15 15 9 17 -17 7 -28 -11 -34 -8 -23 10 9 16 -30 84 -107 182 -67
87 -122 164 -122 170 0 7 -15 28 -33 45 -30 31 -31 30 -20 -6 29 -90 49 -240
35 -255 -31 -31 -61 41 -70 164 -4 69 -21 140 -38 158 -64 75 -81 146 -105
444 -14 170 -40 360 -58 420 -21 71 -28 141 -20 197 8 57 5 83 -8 75 -12 -7
-27 -55 -35 -107 -20 -135 -45 -194 -48 -115 -9 189 -37 372 -62 402 -13 16
-18 35 -11 41 25 26 -55 127 -91 116 -45 -14 -49 36 -6 71 25 20 30 19 30 -8
0 -19 16 -32 40 -32 29 0 40 -13 40 -50 0 -27 8 -50 17 -50 9 0 28 -38 42 -85
45 -152 58 -174 60 -101 0 35 -9 70 -21 77 -13 9 -18 57 -13 126 5 62 2 138
-7 168 -8 30 -11 55 -7 55 16 0 70 -148 66 -179 -11 -80 27 -269 47 -233 11
20 15 62 9 94 -7 32 -3 58 8 58 10 0 19 -11 19 -24 0 -81 38 40 57 183 13 93
33 179 46 190 16 15 20 9 12 -24 -6 -25 -4 -45 4 -45 55 0 89 -165 53 -257
-20 -51 -52 -136 -71 -189 -28 -77 -39 -89 -51 -60 -13 31 -18 28 -41 -24 -26
-57 -20 -187 9 -210 31 -25 53 -118 50 -210 -11 -340 53 -689 125 -683 25 2
51 -25 81 -87 l44 -90 1 64 c1 35 -7 107 -18 160 -41 215 -43 283 -5 276 19
-4 41 -8 49 -8 8 -1 15 -29 15 -62 0 -69 14 -75 54 -25 26 32 28 29 21 -30 -8
-63 -7 -64 31 -30 38 34 39 34 18 -7 -12 -23 -36 -53 -53 -67 -61 -51 -28
-333 47 -404 23 -21 42 -50 42 -65 0 -14 17 -41 38 -60 37 -34 38 -32 36 36
-1 40 -8 62 -15 50 -8 -12 -13 59 -11 159 1 99 8 186 16 193 7 7 3 41 -8 74
-16 46 -15 64 4 76 31 19 9 60 -32 60 -17 0 -25 9 -18 20 7 11 3 20 -7 20 -11
0 -20 27 -19 60 1 33 9 60 17 60 8 0 20 13 26 30 12 31 -27 33 -49 3 -7 -9
-32 11 -57 45 -36 51 -50 58 -81 42 -25 -14 -42 -13 -50 0 -7 12 -24 19 -37
17 -22 -3 -50 5 -148 44 -76 30 -55 65 30 49 41 -7 84 -19 94 -26 21 -12 35
-15 146 -26 36 -4 65 -15 65 -26 0 -10 6 -12 14 -5 22 22 30 118 9 105 -22
-14 -69 38 -76 83 -6 41 -46 79 -127 121 -37 19 -80 54 -96 79 -33 51 -3 61
43 15 17 -16 42 -30 58 -30 15 0 38 -11 52 -25 24 -24 48 -6 68 52 4 9 51 21
106 26 73 8 91 5 69 -11 -44 -31 -7 -27 59 7 64 33 155 6 166 -49 6 -32 -67
-80 -122 -80 -21 0 -25 -6 -11 -15 12 -8 34 -37 48 -65 24 -45 23 -47 -5 -24
-48 40 -155 49 -155 13 0 -35 -24 -37 -56 -5 -19 19 -24 16 -24 -10 0 -32 24
-44 70 -35 11 3 14 -2 7 -9 -7 -7 -6 -38 3 -69 10 -35 8 -65 -5 -78 -15 -15
-1 -38 45 -77 37 -31 87 -75 112 -99 25 -23 50 -38 56 -32 21 21 112 -17 112
-47 0 -17 9 -25 20 -18 35 22 21 -7 -27 -55 -32 -32 -42 -59 -33 -86 8 -21 6
-66 -3 -99 -9 -33 -17 -60 -17 -61 0 -1 391 29 494 38 105 10 186 -27 186 -86
0 -13 9 -18 20 -11 11 7 20 -6 20 -29 0 -28 -13 -41 -41 -41 -25 0 -36 -9 -28
-22 10 -15 0 -18 -31 -8 -34 11 -41 8 -29 -11 9 -16 -2 -13 -30 6 -25 18 -59
27 -75 21 -17 -7 -36 -1 -44 11 -9 15 -102 27 -243 34 -154 7 -215 4 -186 -9
59 -26 78 -62 33 -62 -28 -1 -30 -4 -8 -18 15 -10 21 -28 13 -40 -7 -12 -20
-19 -28 -14 -8 5 -16 -13 -19 -41 -3 -39 4 -47 31 -39 136 40 233 53 355 46
107 -6 156 0 210 28 39 20 86 41 105 46 37 11 46 67 38 239 -6 120 -51 176
-131 162 -35 -7 -51 -3 -42 10 8 14 -3 15 -34 4 -25 -10 -58 -13 -73 -8 -16 6
-8 -10 16 -34 61 -61 43 -69 -86 -40 -86 19 -123 20 -169 1 -66 -28 -164 3
-164 52 0 45 59 53 103 14 46 -42 97 -2 97 76 0 21 21 45 48 55 59 23 139 133
124 172 -13 34 -98 38 -157 6 -34 -18 -47 -16 -66 11 -22 30 -25 30 -36 1 -28
-70 -57 -3 -44 99 7 56 16 138 20 182 4 44 9 89 12 100 7 25 -18 129 -40 171
-10 19 -6 46 11 69 16 21 23 54 17 74 -7 21 -2 36 12 36 18 0 18 7 0 29 -13
16 -22 65 -18 109 7 103 -12 122 -41 40 -18 -52 -27 -59 -51 -39 -16 13 -54
26 -85 29 -31 2 -87 15 -126 27 -38 13 -94 26 -123 30 -29 4 -65 17 -80 29
-15 12 -54 26 -87 29 -52 6 -61 16 -67 77 -3 38 -15 81 -26 94 -11 13 -15 34
-8 45 8 12 -5 21 -30 21 -23 0 -58 17 -76 39 -47 55 -112 62 -113 11 0 -26
-13 -39 -35 -37 -19 1 -30 -6 -24 -15 6 -10 -3 -18 -20 -18 -36 0 -40 -23 -9
-54 15 -15 15 -25 0 -35 -13 -8 -30 9 -42 38 -20 54 -49 66 -71 30 -7 -12 -25
-17 -40 -11 -16 6 -38 -5 -50 -24 -20 -30 -21 -30 -10 4 7 22 1 46 -13 55 -20
13 -20 16 -1 17 14 0 25 9 25 20 0 11 -13 20 -28 20 -15 0 -33 14 -39 30 -10
26 -5 27 29 9 45 -24 64 -19 42 12 -50 69 -97 65 -95 -8 1 -40 9 -84 17 -98
10 -14 7 -25 -5 -25 -11 0 -21 -22 -21 -49 0 -53 -30 -84 -50 -51 -27 44 -53
18 -40 -40 18 -80 -32 -81 -89 -2 -52 73 -51 75 9 87 28 5 50 3 50 -5 0 -8 21
-11 46 -6 60 12 60 91 -1 155 -55 57 -56 71 -5 71 69 0 40 66 -37 85 -42 11
-45 7 -34 -38 20 -79 -29 -49 -102 61 l-63 95 -32 -46 c-36 -51 -44 -177 -11
-177 11 0 25 14 32 30 6 17 29 30 50 30 22 0 34 -9 27 -20 -7 -12 -21 -15 -31
-9 -10 6 -29 -12 -42 -40 -24 -53 -35 -58 -80 -41 -34 13 -31 179 3 221 20 23
19 29 -3 30 -28 0 38 47 69 48 8 1 26 23 40 49 35 71 83 82 67 16 -15 -59 18
-146 62 -163 34 -13 85 45 71 81 -5 13 12 38 37 56 25 18 37 32 26 32 -10 1
10 15 45 32 72 36 86 63 96 188 4 50 3 68 -3 42 -8 -35 -15 -41 -27 -22 -14
22 -26 20 -69 -7 -29 -19 -61 -29 -72 -23 -10 7 -19 3 -19 -9 0 -29 -37 -26
-68 4 -26 26 -36 335 -11 335 34 0 57 -101 36 -161 -35 -98 16 -138 106 -86
81 47 98 156 48 302 -39 114 -40 185 -3 185 36 0 57 -55 26 -66 -17 -6 -12
-33 18 -90 29 -55 41 -107 36 -163 -5 -61 -1 -79 17 -68 79 49 111 18 55 -53
-60 -76 -48 -121 12 -50 35 41 44 46 30 16 -29 -57 -28 -72 3 -53 14 8 9 -7
-10 -34 -19 -27 -53 -82 -74 -122 -24 -44 -70 -88 -115 -110 -42 -20 -76 -50
-77 -67 0 -16 -7 -42 -16 -56 -23 -36 66 -106 117 -90 22 7 51 12 65 12 14 1
20 5 15 11 -6 5 3 24 19 41 29 33 31 39 31 94 0 20 11 28 28 21 16 -6 33 1 39
16 15 39 113 53 113 15 0 -20 17 -11 52 26 43 47 50 68 39 128 -32 181 -35
246 -10 269 19 17 22 17 12 0 -18 -33 6 -87 39 -87 16 0 22 13 15 35 -8 27 -6
29 9 8 10 -15 14 -47 9 -70 -6 -24 -4 -36 5 -28 45 41 70 -32 27 -78 -24 -26
-35 -47 -25 -47 11 0 21 -19 23 -42 4 -64 17 -66 87 -16 36 25 59 36 52 24 -8
-12 12 -45 45 -72 32 -27 62 -73 66 -101 4 -28 13 -58 21 -66 26 -26 14 -46
-20 -33 -31 12 -31 10 -5 -18 39 -43 59 -26 59 50 0 64 -13 89 -136 265 -37
53 -63 111 -58 129 5 19 1 49 -9 67 -14 25 -12 30 12 21 21 -8 31 -39 31 -92
0 -69 5 -78 35 -66 131 55 139 56 201 29 35 -16 67 -42 71 -59 5 -16 10 -3 11
30 3 51 6 55 24 25 28 -48 98 -46 98 4 0 21 10 45 23 53 16 10 20 0 12 -30
-10 -37 -7 -40 17 -21 22 19 28 17 28 -7 0 -18 -25 -36 -61 -44 -42 -9 -58
-23 -51 -42 8 -21 -1 -26 -36 -17 -32 8 -50 2 -59 -20 -6 -17 -31 -31 -54 -31
-33 0 -39 -9 -29 -40 7 -22 4 -40 -7 -40 -11 0 -23 18 -27 39 -4 30 -14 35
-36 21 -24 -15 -25 -23 -5 -43 14 -14 25 -41 25 -61 0 -20 9 -36 19 -36 11 0
15 -13 9 -29 -30 -78 28 -100 65 -24 32 69 38 72 61 40 14 -19 26 -28 26 -20
0 8 12 3 27 -11 28 -25 0 -76 -41 -76 -10 0 -19 -19 -21 -43 -7 -95 -60 -113
-126 -43 -36 39 -71 60 -90 53 -16 -6 -41 -2 -56 11 -15 12 -32 16 -39 9 -7
-6 8 -29 32 -49 38 -32 40 -40 14 -57 -26 -18 -25 -20 5 -21 22 0 35 -15 35
-40 0 -33 -13 -40 -80 -40 -44 0 -80 -10 -80 -22 0 -13 22 -16 56 -9 34 8 80
1 115 -18 33 -17 79 -31 104 -31 30 0 59 -22 84 -65 21 -36 59 -86 85 -111
l46 -45 6 50 c4 29 -12 77 -35 109 -22 32 -41 64 -41 72 0 7 -18 37 -40 65
-43 54 -51 85 -22 85 9 0 22 -18 28 -40 10 -39 54 -57 54 -22 0 19 97 52 130
43 11 -3 79 -8 150 -12 178 -9 220 -24 220 -78 0 -24 6 -51 14 -58 7 -8 17
-34 20 -58 12 -78 50 -93 43 -17 -5 48 2 71 23 77 26 7 26 5 1 -12 -45 -31
-14 -47 46 -24 29 11 53 33 53 50 0 33 67 77 87 57 7 -7 -10 -43 -39 -80 -77
-101 2 -176 112 -106 21 13 8 15 -42 7 -108 -17 -121 40 -23 99 41 24 83 41
93 38 10 -4 7 8 -8 25 -22 27 -20 37 12 61 21 16 31 29 22 29 -8 1 -6 19 6 40
12 23 33 35 49 28 68 -26 68 19 1 56 -71 38 -150 35 -150 -6 0 -35 -141 -154
-180 -152 -30 3 -33 11 -17 41 26 48 -51 137 -112 133 -73 -6 -105 4 -60 18
39 13 39 14 4 48 -36 36 -92 -32 -77 -93 2 -10 -9 -8 -25 5 -23 20 -28 18 -26
-11 2 -23 -16 -39 -57 -47 l-60 -12 60 -11 c56 -9 55 -10 -15 -13 -100 -4 -92
21 54 163 100 99 121 111 137 83 27 -49 151 -96 183 -69 30 24 53 -15 49 -87
-2 -32 -6 -28 -17 17 -12 49 -17 54 -30 25 -42 -95 69 -133 116 -40 15 30 33
108 39 172 12 121 47 181 115 199 44 12 57 -53 16 -78 -15 -9 -18 -5 -8 14 8
15 -14 -2 -48 -39 -39 -40 -61 -83 -57 -108 9 -59 45 -64 71 -11 12 25 23 35
24 21 0 -14 13 -25 27 -25 40 0 217 -184 205 -214 -5 -15 8 -45 29 -66 22 -22
40 -56 39 -75 0 -39 -59 22 -59 62 0 11 -5 14 -12 8 -6 -6 -1 -30 10 -52 18
-34 14 -46 -23 -72 -41 -29 -45 -28 -58 4 -11 26 -15 28 -16 5 0 -17 -19 -42
-41 -55 -22 -14 -40 -42 -40 -63 0 -59 -78 -95 -240 -109 -82 -7 -191 -18
-241 -25 l-91 -12 -37 87 c-58 138 -59 175 -7 197 43 18 42 19 -14 16 -33 -3
-69 1 -80 7 -11 7 -38 5 -60 -4 -35 -14 -33 -16 15 -18 49 -1 54 -7 43 -51 -7
-28 -3 -62 8 -75 12 -14 27 -84 35 -155 7 -72 26 -169 42 -217 15 -48 23 -105
16 -125 -6 -21 -12 -67 -13 -103 -1 -36 -14 -83 -29 -104 -43 -63 -32 -84 41
-80 52 2 66 -4 58 -25 -6 -16 16 -57 49 -92 33 -35 67 -84 74 -109 12 -40 17
-42 44 -15 40 40 36 42 110 -61 61 -85 68 -89 94 -55 20 26 30 29 37 11 5 -14
24 -40 42 -58 40 -40 45 -62 50 -230 5 -165 20 -159 54 22 14 78 32 141 38
141 7 0 12 28 12 63 0 35 11 66 26 69 14 3 16 1 6 -5 -11 -5 -15 -22 -9 -38 6
-16 19 -24 29 -18 22 14 24 -18 3 -39 -22 -22 -20 -60 4 -77 12 -8 6 -15 -14
-15 -19 0 -35 -9 -35 -19 0 -10 16 -28 35 -39 19 -12 25 -21 13 -21 -12 -1
-32 -24 -45 -52 -13 -30 -15 -46 -3 -39 11 7 20 3 20 -8 0 -11 -9 -25 -20 -32
-11 -7 -20 -23 -20 -36 0 -15 8 -13 19 5 10 17 25 24 32 17 7 -8 0 -32 -16
-55 -16 -22 -35 -35 -42 -28 -7 8 -13 -2 -13 -21 0 -143 -372 -482 -470 -427
-30 17 -34 15 -24 -12 14 -36 -12 -41 -76 -13 -36 16 -36 17 -3 19 29 1 25 10
-23 51 -77 65 -121 66 -109 2 5 -26 -1 -53 -13 -61 -46 -28 -20 -67 53 -79 41
-7 92 -15 114 -19 21 -3 42 -16 46 -29 5 -14 48 5 108 46 99 68 190 85 222 41
8 -13 15 -7 15 12 0 19 -11 38 -25 44 -15 6 -11 10 10 11 19 1 35 11 35 21 0
11 32 50 70 87 39 37 70 79 70 93 0 14 13 20 28 14 32 -12 52 26 52 100 0 27
15 78 34 113 l33 64 13 -50 c8 -27 7 -68 -1 -91 -9 -24 -4 -55 13 -79 15 -20
28 -58 28 -84 0 -25 16 -62 35 -82 76 -78 94 -106 58 -92 -25 9 -30 4 -21 -20
7 -17 21 -26 32 -20 21 14 -25 -75 -79 -150 -27 -39 -28 -46 -5 -39 30 10 182
240 168 255 -16 17 36 82 56 69 13 -7 17 -4 9 8 -7 11 1 64 17 118 16 53 29
160 27 237 -1 93 -6 120 -14 81 l-13 -59 -38 83 c-32 73 -34 89 -10 118 26 30
21 32 -52 20 -78 -14 -79 -13 -40 22 28 24 39 58 38 110 -1 41 6 75 16 75 10
0 12 -10 4 -23 -9 -15 -5 -18 9 -9 13 8 20 21 15 29 -5 8 36 58 90 111 61 59
96 108 89 126 -6 15 -2 23 9 16 11 -7 20 -3 20 9 0 11 -11 21 -25 21 -19 1
-19 4 1 17 14 9 27 36 29 60 2 24 12 43 23 43 10 0 13 6 5 13 -7 8 1 36 18 62
27 41 28 54 6 82 -54 67 -73 117 -63 169 11 54 45 76 47 29 0 -14 18 -4 40 22
42 51 55 211 19 233 -30 19 -26 175 5 164 14 -4 23 -31 22 -58 -4 -57 72 -58
137 -1 18 16 43 23 55 15 12 -7 20 -6 18 4 -9 41 45 129 73 119 17 -7 27 -1
25 13 -3 14 18 24 51 24 55 0 101 42 81 75 -5 9 2 14 16 10 43 -9 42 75 -2
154 -23 40 -36 83 -28 95 8 13 4 16 -10 8 -13 -8 -23 -8 -23 0 0 15 99 114
130 128 25 12 28 59 6 104 -10 20 -6 44 9 60 14 15 28 40 31 56 9 53 51 129
99 183 27 28 50 64 52 80 2 15 11 38 20 52 8 14 8 26 -1 26 -9 1 2 9 24 18 23
9 45 7 53 -5 7 -11 11 13 8 53 -4 67 -31 132 -31 75 0 -14 -27 -64 -59 -111
-33 -47 -54 -92 -47 -98 7 -7 4 -13 -8 -13 -11 0 -37 -38 -57 -85 -69 -157
-131 -244 -152 -213 -15 21 -17 18 -9 -12 17 -65 -84 -149 -208 -174 -51 -10
-83 -54 -84 -115 -1 -33 -8 -56 -16 -51 -8 5 -31 -9 -52 -32 -29 -32 -31 -44
-10 -57 16 -10 21 -32 13 -58 -13 -40 -55 -37 -108 8 -3 3 26 54 65 112 74
109 87 171 52 238 -19 35 -14 37 75 31 52 -4 104 -1 115 7 11 9 44 21 74 28
36 9 51 23 44 42 -6 16 6 39 28 53 25 16 35 38 28 64 -6 24 3 50 23 64 18 13
46 57 63 98 17 40 49 91 71 113 22 22 35 50 28 61 -20 31 -135 -104 -202 -235
-35 -70 -60 -101 -63 -80 -4 18 -26 33 -49 33 -42 0 -42 1 -4 31 38 31 38 32
-5 23 -25 -6 -43 -4 -41 3 8 33 -31 103 -58 103 -16 0 -24 9 -17 20 7 11 -7
20 -30 20 -23 0 -37 9 -30 20 7 11 4 20 -7 20 -30 0 -107 160 -78 161 14 0 5
17 -19 37 -24 20 -38 43 -31 50 7 8 -7 19 -32 26 -34 8 -43 22 -36 51 6 21 5
34 -1 28 -21 -21 -88 29 -85 63 12 115 4 124 -100 124 -131 0 -149 -67 -86
-313 23 -90 38 -184 33 -210 -8 -43 -7 -43 10 -7 13 29 17 6 13 -81 -4 -71 4
-142 19 -168 23 -44 25 -42 28 36 7 151 7 173 -7 213 -16 48 63 176 114 186
31 6 32 1 5 -63 -38 -91 -62 -343 -35 -360 11 -7 58 51 105 129 92 155 113
169 70 47 -37 -103 -37 -165 0 -202 71 -71 -57 -116 -138 -48 -21 17 -40 18
-69 3 -48 -26 -62 -11 -128 138 -33 75 -46 135 -40 190 5 57 2 72 -12 51 -30
-43 -8 -242 32 -289 34 -41 34 -41 -7 -7 -22 19 -45 35 -50 35 -12 0 -6 -194
9 -340 9 -78 7 -92 -5 -50 -10 33 -32 93 -50 134 -39 91 -40 229 -2 296 16 28
28 77 28 110 -1 51 -4 47 -25 -30 -30 -108 -83 -205 -64 -117 6 29 16 70 22
90 8 30 6 29 -10 -3 -31 -62 -66 -157 -70 -190 -8 -69 -37 -160 -51 -160 -27
0 -39 57 -14 69 13 6 4 6 -21 -1 -29 -7 -45 -2 -46 16 0 17 -9 14 -27 -9 -25
-33 -27 -32 -27 14 0 28 8 45 18 39 9 -5 17 4 17 21 0 54 2 60 35 97 18 19 45
31 60 25 15 -6 22 -2 16 8 -7 10 6 48 28 85 23 36 41 57 41 45 0 -11 -15 -42
-34 -70 l-33 -49 45 40 c34 29 42 53 34 96 -6 31 -3 51 6 45 19 -11 12 81 -20
268 -27 161 -23 192 27 217 34 16 -34 22 -290 23 -184 0 -335 -6 -335 -15 0
-9 -14 -34 -30 -55 -25 -33 -28 -33 -18 -4 7 20 2 35 -11 35 -13 0 -18 9 -11
20 7 11 -2 20 -19 20 -17 0 -31 -11 -31 -25 -1 -17 -7 -15 -20 5 -18 26 -22
26 -39 1 -12 -19 -12 -34 0 -41 11 -8 11 -38 -1 -81 -24 -83 -24 -84 -3 -71
35 22 64 -133 29 -158 -28 -21 -26 -25 15 -36 l47 -12 -47 -51 c-27 -28 -56
-51 -67 -51 -10 0 3 18 29 39 26 22 37 40 25 40 -40 2 -92 -74 -79 -116 7 -22
3 -45 -8 -52 -12 -8 -21 -28 -21 -45 0 -18 27 5 60 51 33 46 68 83 76 83 9 0
37 36 62 81 25 45 63 92 84 105 21 13 38 39 38 58 0 18 10 40 21 47 14 8 8 23
-15 40 -34 25 -34 26 6 17 27 -7 64 8 105 42 62 53 80 49 43 -10 -10 -16 -28
-31 -39 -32 -12 -2 -30 -4 -41 -5 -11 -2 -20 -13 -20 -25 0 -16 9 -15 30 2 30
25 54 -9 73 -110 10 -53 156 -124 179 -87 12 20 19 18 29 -8 7 -18 30 -39 51
-46 21 -6 38 -21 38 -33 0 -13 -11 -11 -30 4 -36 30 -41 -1 -6 -36 35 -35 6
-30 -96 17 -50 22 -94 52 -100 67 -15 40 -71 31 -58 -9 8 -24 -2 -37 -36 -43
-77 -15 -131 17 -151 88 -11 36 -20 50 -21 30 -1 -20 -16 -62 -32 -94 -25 -48
-25 -57 -3 -48 15 6 33 -4 40 -21 6 -17 2 -31 -9 -31 -11 0 -15 -9 -9 -19 7
-11 -19 -55 -58 -98 -123 -135 -38 -328 92 -210 34 31 37 31 37 0 0 -21 17
-33 45 -33 82 -1 105 -29 68 -82 -18 -26 -34 -65 -35 -87 -2 -35 -4 -35 -12
-6 -5 20 -17 30 -28 24 -10 -6 -18 7 -18 28 0 43 -64 75 -103 51 -16 -10 -20
-4 -12 17 9 23 -5 34 -56 44 -80 15 -109 58 -96 141 6 40 -8 20 -45 -60 -29
-66 -58 -163 -63 -215 -5 -52 -16 -95 -24 -95 -24 0 -42 146 -30 243 6 48 14
204 18 347 3 143 8 314 11 380 7 201 13 190 -110 190 -72 0 -110 -8 -110 -24
0 -19 -5 -19 -24 0 -13 13 -31 24 -40 24 -27 0 -18 -74 12 -98 59 -50 42 -262
-21 -262 -33 0 -35 24 -3 56 13 13 18 24 10 24 -7 0 -4 23 6 50 15 39 13 50
-10 50 -19 0 -25 12 -17 35 10 28 7 28 -18 -5 -27 -34 -28 -46 -4 -93 24 -44
24 -55 1 -63 -16 -7 -26 2 -25 22 2 18 -7 33 -20 34 -13 0 -31 8 -40 18 -10
11 -7 12 8 4 14 -8 25 -5 25 7 0 11 -10 21 -21 21 -12 0 -15 10 -7 23 9 15 5
18 -10 8 -15 -9 -45 3 -73 30 l-48 45 24 -62 c13 -35 27 -58 32 -53 29 29 104
-136 92 -201 -10 -49 -6 -70 11 -70 16 0 21 -19 14 -55 -6 -32 1 -68 16 -85
24 -26 15 -30 -72 -30 -80 0 -98 6 -98 35 0 19 14 35 31 35 16 0 35 13 42 30
6 16 19 25 28 20 9 -6 23 0 31 13 8 13 6 18 -4 12 -17 -10 -69 32 -68 55 1 35
-3 37 -20 10 -16 -26 -22 -26 -44 4 -24 31 -35 28 -130 -37 -71 -48 -117 -66
-144 -57 -62 19 43 132 117 126 67 -5 101 17 101 65 0 34 -12 37 -110 29 -72
-6 -110 -2 -110 12 0 14 19 17 50 10 29 -7 50 -4 50 8 0 11 -13 20 -30 20 -16
0 -30 14 -30 31 0 17 -8 26 -19 20 -37 -23 -44 32 -8 62 20 16 26 24 12 17
-14 -7 -25 -4 -25 7 0 10 14 24 30 30 17 7 30 32 30 57 -1 34 -5 39 -18 19
-14 -22 -19 -22 -26 -2 -39 118 -119 -176 -115 -421 2 -106 45 -232 77 -225
12 3 22 -9 22 -27 0 -50 -47 -22 -86 53 -37 70 -38 432 -2 584 12 54 11 55
-82 55 -82 0 -92 -4 -79 -35 17 -40 17 -45 1 -243 -10 -124 -7 -151 22 -172
41 -30 7 -228 -47 -273 -27 -22 -27 -16 1 51 33 79 43 195 19 219 -18 17 -87
-46 -87 -79 0 -38 -34 -53 -85 -36 l-44 14 43 16 c68 25 181 394 146 478 -24
58 -140 93 -140 42z m1534 -155 c25 -52 6 -127 -32 -127 -25 0 -39 67 -27 128
12 66 29 66 59 -1z m-630 -273 c-9 -38 -7 -41 21 -18 23 19 35 20 46 3 8 -13
2 -31 -13 -41 -26 -16 -24 -19 18 -25 26 -4 70 -58 110 -132 51 -96 33 -93
-47 9 -60 76 -124 127 -89 70 7 -11 -1 -14 -19 -8 -17 7 -26 19 -21 28 5 9 -4
42 -20 73 -40 77 -41 174 -1 121 15 -20 22 -56 15 -80z m800 -128 c45 1 72 5
59 10 -13 4 -23 21 -23 37 0 23 13 20 61 -14 34 -24 67 -38 73 -31 16 15 63
-72 51 -94 -5 -9 -21 -6 -36 7 -15 12 -36 17 -46 11 -11 -7 -23 -1 -28 13 -6
19 -31 18 -109 -7 -140 -45 -177 -23 -130 76 28 59 35 65 40 31 5 -34 20 -40
88 -39z m-1073 16 c-6 -10 0 -22 14 -27 15 -5 5 -19 -25 -34 -28 -14 -70 -44
-95 -67 -70 -64 -53 -5 22 75 62 65 111 96 84 53z m2219 -268 l0 -144 -97 -11
c-97 -11 -98 -11 -53 25 33 27 52 31 71 15 38 -31 62 147 32 231 -32 88 -29
104 12 64 27 -27 35 -69 35 -180z m-1812 69 c-13 -5 -40 13 -60 39 -58 75 -44
91 23 27 37 -35 51 -62 37 -66z m496 -22 c-4 -22 -12 -46 -19 -52 -7 -7 -7
-26 -1 -41 16 -43 -10 -33 -35 14 -18 33 -15 49 13 80 43 48 49 48 42 -1z
m256 -33 c51 -54 47 -108 -7 -107 -43 0 -110 92 -95 130 16 43 48 36 102 -23z
m570 -120 c0 -58 19 -108 42 -108 9 0 12 29 6 65 -9 50 -6 58 10 35 18 -25 22
-21 24 20 l3 50 10 -49 c12 -66 120 -221 154 -221 49 0 58 -101 12 -134 -23
-15 -41 -50 -41 -77 0 -49 -1 -49 -70 -20 -41 17 -74 21 -81 10 -6 -11 -20
-19 -31 -19 -11 0 -15 9 -8 20 7 11 -1 20 -16 20 -78 0 -84 45 -66 475 3 63
52 -1 52 -67z m-980 -28 c-16 -11 -23 -20 -15 -20 14 0 -57 -160 -71 -160 -27
0 -2 94 32 124 32 29 35 37 10 29 -24 -8 -31 -2 -23 18 6 16 31 29 54 29 35
-1 38 -4 13 -20z m754 -58 c2 -32 -9 -69 -25 -83 -16 -13 -24 -31 -18 -41 16
-25 -55 3 -96 38 -42 36 -46 104 -6 104 16 0 34 -9 41 -20 20 -32 44 -23 56
20 15 59 43 48 48 -18z m-1132 -64 c72 -77 72 -86 3 -69 -72 19 -105 48 -105
93 0 55 36 47 102 -24z m1203 -220 c-6 -25 7 -59 37 -92 46 -50 47 -51 4 -29
-55 29 -59 36 -77 133 -14 71 -12 77 16 54 18 -15 26 -43 20 -66z m701 17 c6
-25 4 -81 -5 -125 -19 -93 -25 -80 -28 65 -3 108 15 140 33 60z m-1878 -7 c47
-18 39 -48 -14 -48 -25 0 -65 -14 -90 -31 -55 -39 -58 -3 -4 51 43 43 59 47
108 28z m1511 -182 c-25 -40 -199 -63 -199 -26 0 11 29 20 65 21 36 0 82 13
104 29 47 37 61 26 30 -24z m531 34 c7 -12 -20 -20 -70 -20 -50 0 -77 8 -70
20 7 11 38 20 70 20 32 0 63 -9 70 -20z m-285 -53 c-14 -6 -25 -31 -25 -57 0
-25 -14 -51 -30 -57 -17 -7 -28 -23 -25 -37 9 -45 -79 -42 -91 3 -8 33 -1 41
38 41 26 0 48 11 48 23 0 32 61 97 88 95 13 0 11 -5 -3 -11z m-505 -52 c-1
-14 -27 -70 -60 -125 -33 -55 -59 -109 -60 -120 0 -11 18 9 40 45 84 139 120
62 41 -87 -68 -127 -72 -163 -33 -278 40 -115 63 -279 36 -263 -38 24 -86
-202 -102 -484 -19 -333 -63 -450 -141 -378 -22 20 -24 20 -11 -3 11 -18 8
-23 -6 -15 -30 19 -20 90 25 173 20 39 40 111 43 160 5 95 15 148 46 248 25
81 39 313 18 300 -9 -6 -16 -1 -16 11 0 12 14 27 30 34 58 22 15 243 -57 290
-11 7 -21 30 -23 50 -10 122 -61 161 -183 138 l-69 -13 45 51 c24 28 56 51 71
51 14 0 26 9 26 20 0 31 52 24 81 -11 24 -29 28 -28 44 1 10 18 39 40 64 50
26 9 63 54 84 98 36 80 67 106 67 57z m276 -125 c-13 -59 -73 18 -61 79 l11
57 28 -54 c16 -30 26 -67 22 -82z m-28 -62 c46 -18 39 -68 -9 -68 -23 0 -36
-8 -30 -19 6 -10 3 -24 -9 -31 -11 -7 -20 -2 -20 10 0 12 -9 17 -19 10 -12 -7
-11 13 2 49 22 63 32 69 85 49z m-154 -128 l-12 -100 59 44 c66 49 129 26 82
-30 -12 -15 -16 -34 -8 -42 7 -8 -1 -9 -19 -2 -17 7 -38 3 -45 -9 -7 -11 -31
-21 -52 -21 -22 0 -40 -7 -41 -15 -8 -79 -44 -145 -80 -145 -10 0 -18 41 -18
92 0 97 51 208 94 208 16 0 26 24 26 60 0 33 6 60 13 60 7 0 7 -45 1 -100z
m-1542 -93 c35 -16 81 -30 103 -32 27 -2 37 -13 29 -32 -7 -21 -2 -25 18 -15
15 8 1 -9 -32 -39 -33 -29 -48 -47 -33 -39 21 12 24 4 12 -32 -8 -27 -15 -58
-15 -70 -1 -25 -2 -25 -171 -28 -147 -4 -189 20 -120 68 l46 32 -55 0 c-29 0
-54 7 -54 17 0 9 27 12 60 7 51 -7 58 -3 47 25 -10 27 -16 29 -29 8 -13 -21
-17 -19 -18 8 0 20 -11 54 -25 76 -56 92 80 119 237 46z m995 -54 c13 7 16 6
8 -3 -8 -9 -4 -29 8 -44 19 -23 14 -24 -31 -7 -74 28 -147 26 -159 -4 -5 -14
-11 -5 -11 19 -2 50 45 67 115 42 25 -9 57 -10 70 -3z m-1327 -29 c0 -9 -10
-26 -22 -38 -17 -17 -14 -35 10 -69 43 -62 40 -81 -12 -73 -54 7 -92 123 -55
168 26 30 79 38 79 12z m1033 -35 c7 -17 25 -27 40 -21 15 6 27 2 27 -9 0 -10
14 -19 31 -19 17 0 26 -9 19 -20 -7 -11 1 -20 18 -20 16 0 35 9 42 20 13 22
90 28 90 7 0 -31 -77 -66 -147 -66 -79 -1 -208 99 -182 141 18 28 49 21 62
-13z m855 -358 c-22 -16 -30 -38 -21 -60 35 -92 -49 -237 -122 -209 -56 21
-59 71 -5 88 41 13 57 70 20 70 -11 0 -20 9 -20 20 0 11 14 20 30 20 22 0 27
13 19 48 -7 26 -3 54 9 61 12 7 22 3 22 -10 0 -18 7 -18 28 -1 40 34 50 115
19 160 -28 40 -16 110 15 91 10 -6 20 5 22 25 2 20 7 -35 11 -121 6 -130 1
-162 -27 -182z m-382 238 c31 -42 31 -49 5 -49 -46 0 -38 -55 10 -70 52 -17
24 -56 -80 -110 -50 -27 -60 -38 -33 -39 66 -2 17 -26 -67 -34 -108 -9 -108
35 -1 83 87 39 95 59 15 40 -27 -7 -91 -51 -142 -98 -94 -86 -210 -156 -181
-109 9 16 4 20 -15 12 -17 -6 -40 5 -53 26 -29 47 -1 68 85 64 60 -3 61 -3 11
17 -27 12 -79 16 -115 11 -36 -6 -65 -2 -65 8 0 11 -13 19 -30 19 -34 0 -43
110 -11 130 26 15 129 -38 180 -94 l41 -44 41 44 c22 24 76 49 119 56 43 7 76
19 74 26 -8 25 82 122 114 122 18 0 32 9 32 20 0 34 28 21 66 -31z m134 6 c-1
-49 -25 -115 -42 -115 -21 0 -24 62 -6 108 15 38 48 43 48 7z m-1660 -295 c34
-34 57 -120 32 -120 -25 0 -124 114 -117 135 12 36 39 31 85 -15z m548 -229
l13 -119 -45 43 c-35 32 -55 38 -81 23 -29 -17 -35 -12 -35 30 0 32 14 54 40
62 22 7 50 31 62 53 28 53 30 48 46 -92z m1052 68 c0 -20 -162 -73 -275 -91
-47 -7 -91 -22 -97 -32 -11 -17 -66 38 -67 67 -1 15 94 34 222 45 51 4 109 17
129 28 37 21 88 11 88 -17z"/>
<path d="M4297 2896 c-55 -44 -62 -170 -11 -206 40 -28 44 -27 61 15 11 27 21
35 27 20 26 -70 142 -2 130 76 -8 54 -84 148 -84 104 0 -33 -77 -45 -84 -12
-5 24 -12 25 -39 3z"/>
<path d="M3533 3659 c-20 -99 -17 -110 37 -114 28 -3 50 6 50 19 0 12 -6 17
-13 10 -25 -25 -65 54 -42 82 14 17 15 32 1 46 -14 14 -25 0 -33 -43z"/>
<path d="M5260 3612 c0 -18 -14 -25 -40 -18 -48 13 -52 -19 -8 -56 28 -23 38
-20 70 20 46 56 48 82 8 82 -16 0 -30 -13 -30 -28z"/>
<path d="M3204 3281 c-71 -66 -83 -93 -27 -63 32 17 116 122 98 122 -3 0 -35
-26 -71 -59z"/>
<path d="M2340 2890 c-14 -16 -37 -30 -52 -30 -16 0 -28 -9 -28 -20 0 -11 14
-20 30 -20 17 0 30 9 30 20 0 11 18 20 40 20 22 0 40 9 40 19 0 11 16 15 35 8
30 -9 30 -7 5 11 -41 30 -71 27 -100 -8z"/>
<path d="M4260 895 c1 -48 6 -57 19 -36 17 26 20 26 27 0 5 -16 33 -102 62
-191 61 -192 63 -223 17 -289 -19 -27 -32 -51 -29 -54 7 -8 -55 -125 -67 -125
-6 0 -1 17 10 39 50 92 13 57 -79 -77 -115 -167 -113 -162 -59 -162 23 0 37 8
31 17 -13 21 67 110 84 94 6 -6 1 -22 -12 -35 -39 -39 -27 -76 25 -76 75 0
150 182 151 365 0 90 2 94 40 70 78 -48 101 -255 28 -255 -17 0 -22 -12 -14
-33 9 -23 5 -29 -11 -19 -21 13 -63 -59 -63 -109 0 -27 155 -24 171 3 8 12 15
79 16 150 3 140 8 147 58 88 28 -32 30 -50 12 -95 -59 -152 -59 -165 4 -165
l59 0 1 145 0 145 45 -52 c24 -29 64 -63 89 -76 55 -29 82 -119 43 -144 -19
-12 0 -17 57 -18 94 0 95 54 0 155 -48 52 -35 55 71 18 91 -32 109 -48 117
-113 7 -52 137 -91 137 -40 0 13 11 16 25 7 17 -10 16 -4 -2 19 -16 19 -22 34
-14 34 8 0 -1 15 -19 33 -21 20 -25 38 -12 45 11 7 -7 25 -39 39 -33 15 -55
34 -49 42 5 9 -3 27 -18 40 -20 16 -32 16 -42 2 -7 -12 -21 -16 -32 -10 -10 6
-13 20 -7 30 12 20 8 22 -75 26 -30 2 -73 19 -96 38 -22 19 -49 35 -60 35 -11
0 -20 8 -20 17 0 9 -13 16 -30 16 -16 0 -30 -7 -30 -15 0 -9 -24 5 -52 31 -29
25 -70 62 -92 80 -21 19 -34 47 -28 64 6 16 4 24 -6 18 -10 -6 -28 16 -39 49
-12 33 -16 60 -10 60 7 0 2 12 -10 27 -13 15 -16 34 -8 43 8 9 4 10 -10 2 -14
-8 -21 -23 -14 -33 6 -10 -3 -13 -19 -7 -17 7 -30 18 -28 25 7 37 -34 82 -85
93 -32 7 -57 19 -56 26 5 41 -6 64 -33 64 -21 0 -30 -20 -30 -65z"/>
<path d="M1857 849 c-17 -18 -48 -34 -69 -38 -23 -3 -36 -19 -32 -40 4 -21
-10 -38 -35 -45 -29 -8 -41 -27 -41 -68 0 -32 -10 -58 -21 -58 -13 0 -16 -17
-9 -40 8 -24 4 -40 -10 -40 -12 0 -17 -9 -10 -20 19 -31 -4 -24 -40 13 -25 25
-32 26 -29 5 7 -49 -1 -85 -14 -71 -8 7 -35 -1 -61 -18 -26 -17 -54 -26 -63
-21 -9 6 -32 -8 -51 -31 -19 -22 -47 -36 -62 -30 -15 6 -38 -2 -51 -18 -13
-16 -41 -29 -63 -29 -21 0 -33 -9 -26 -20 7 -11 -2 -20 -19 -20 -17 0 -31 11
-31 25 -1 19 -5 19 -17 -1 -9 -15 -13 -47 -8 -72 5 -27 -6 -56 -27 -73 -22
-18 -30 -20 -21 -4 9 14 6 25 -6 25 -12 0 -20 -25 -17 -56 2 -30 -3 -66 -11
-80 -10 -16 -2 -24 25 -24 30 0 52 27 83 99 57 131 189 226 228 163 6 -10 -10
-23 -35 -29 -47 -12 -134 -142 -134 -202 0 -28 18 -32 110 -27 61 3 110 7 110
9 0 37 -31 59 -71 52 -94 -18 -58 70 51 124 39 20 100 64 137 98 l68 63 -14
-97 c-8 -53 -8 -132 -1 -175 l14 -78 109 0 c61 0 107 7 103 15 -59 123 -92
182 -120 213 -33 37 -32 42 35 115 38 43 69 89 69 104 0 15 19 52 42 81 83
105 115 401 35 321z"/>
<path d="M1821 364 c-25 -146 -17 -287 19 -344 14 -22 20 -5 20 60 1 88 2 89
30 40 16 -27 29 -66 29 -85 1 -25 17 -35 62 -35 l60 0 -31 61 c-18 33 -27 68
-21 78 6 9 -15 74 -46 144 -32 70 -66 150 -77 177 -18 44 -23 33 -45 -96z"/>
<path d="M3943 408 c-6 -85 -183 -272 -248 -261 -8 2 -29 -17 -46 -42 -17 -25
-39 -41 -48 -35 -18 11 -48 -50 -33 -65 10 -10 113 56 190 123 47 41 48 41 34
2 -13 -36 -10 -35 33 6 67 62 140 215 129 269 -8 42 -9 42 -11 3z"/>
<path d="M3950 228 c-21 -40 -78 -107 -127 -150 -86 -76 -87 -78 -35 -78 53 0
212 204 212 273 0 40 -7 34 -50 -45z"/>
<path d="M2931 207 c-14 -37 19 -66 76 -67 42 0 34 50 -9 51 -15 0 -26 12 -23
25 8 36 -29 29 -44 -9z"/>
<path d="M3960 102 c-38 -37 -57 -60 -42 -51 21 11 25 7 16 -18 -22 -58 14
-35 62 39 64 98 48 111 -36 30z"/>
<path d="M1460 62 c0 -48 9 -62 38 -62 32 0 36 9 24 54 -21 77 -62 83 -62 8z"/>
</g>
</svg>
