<?xml version="1.0" encoding="UTF-8" standalone="no"?>
<!DOCTYPE svg PUBLIC "-//W3C//DTD SVG 1.1//EN" "http://www.w3.org/Graphics/SVG/1.1/DTD/svg11.dtd">
<svg xmlns="http://www.w3.org/2000/svg" version="1.1" viewBox="0.00 0.00 1024.00 1024.00">
<g stroke-width="2.40" fill="none" stroke-linecap="butt">
<path stroke="#77618c" vector-effect="non-scaling-stroke" d="
  M 618.84 336.81
  Q 616.85 339.94 617.95 345.46"
/>
<path stroke="#3d0d57" vector-effect="non-scaling-stroke" d="
  M 617.92 361.95
  Q 616.70 365.17 617.89 367.61"
/>
<path stroke="#6b4486" vector-effect="non-scaling-stroke" d="
  M 641.51 500.21
  L 637.77 493.06
  Q 637.40 492.36 636.68 492.68
  L 621.66 499.43"
/>
<path stroke="#77618c" vector-effect="non-scaling-stroke" d="
  M 621.66 499.43
  L 604.75 507.00"
/>
<path stroke="#3d0d57" vector-effect="non-scaling-stroke" d="
  M 604.75 507.00
  Q 602.23 506.79 600.14 508.16
  A 1.25 1.25 0.0 0 1 599.48 508.37
  Q 599.30 508.38 599.13 508.38
  Q 598.75 508.39 598.41 508.52
  C 595.17 509.77 592.23 511.22 588.83 512.64
  C 585.02 514.23 581.66 516.32 577.84 518.16
  C 574.70 519.66 569.42 522.54 567.93 525.48
  Q 557.18 546.64 550.31 556.53
  C 539.01 572.78 524.65 582.24 504.69 584.07
  C 486.60 585.73 469.20 579.43 456.67 566.20
  C 446.47 555.42 439.61 540.40 432.52 527.49
  Q 429.67 522.29 424.51 519.91
  C 421.24 518.40 419.01 515.84 415.12 516.01"
/>
<path stroke="#77618c" vector-effect="non-scaling-stroke" d="
  M 415.12 516.01
  Q 414.50 515.67 413.91 515.41
  Q 396.16 507.64 378.45 499.80
  Q 377.45 499.36 374.10 498.35"
/>
<path stroke="#1c012d" vector-effect="non-scaling-stroke" d="
  M 374.10 498.35
  Q 370.55 496.97 370.11 498.32"
/>
<path stroke="#867e8d" vector-effect="non-scaling-stroke" d="
  M 383.77 344.76
  Q 384.77 340.07 383.27 336.88"
/>
<path stroke="#3d0d57" vector-effect="non-scaling-stroke" d="
  M 382.96 319.48
  Q 384.62 313.87 383.87 307.38"
/>
<path stroke="#3d0d57" vector-effect="non-scaling-stroke" d="
  M 383.81 303.99
  Q 384.58 297.41 383.25 291.63"
/>
<path stroke="#6b4486" vector-effect="non-scaling-stroke" d="
  M 649.80 514.48
  Q 652.28 516.45 651.77 518.00
  Q 650.52 521.80 646.44 529.45"
/>
<path stroke="#d3a4f6" vector-effect="non-scaling-stroke" d="
  M 646.44 529.45
  Q 634.60 515.14 625.21 499.24
  Q 624.94 498.79 624.42 498.89
  L 621.66 499.43"
/>
<path stroke="#84619d" vector-effect="non-scaling-stroke" d="
  M 374.10 498.35
  L 370.62 504.17"
/>
<path stroke="#a56cc7" vector-effect="non-scaling-stroke" d="
  M 415.12 516.01
  Q 415.37 516.56 415.74 517.19
  Q 451.68 578.31 488.59 638.86
  Q 494.05 647.82 499.97 656.40
  A 0.57 0.57 0.0 0 0 500.92 656.38
  Q 543.88 587.00 585.67 516.85
  C 586.49 515.46 587.36 514.86 588.77 514.27
  Q 596.82 510.87 604.75 507.00"
/>
<path stroke="#77618c" vector-effect="non-scaling-stroke" d="
  M 646.44 529.45
  C 622.97 576.84 598.03 623.31 573.68 670.17
  Q 571.53 674.31 569.15 678.16
  A 1.30 1.30 0.0 0 1 568.04 678.78
  L 433.06 678.81
  A 0.83 0.82 76.6 0 1 432.32 678.35
  C 431.35 676.29 429.93 674.26 428.98 672.48
  Q 402.08 621.89 375.20 571.30
  Q 361.74 545.98 353.36 529.10"
/>
<path stroke="#a56cc7" vector-effect="non-scaling-stroke" d="
  M 353.36 529.10
  Q 354.96 527.74 355.43 526.71"
/>
<path stroke="#77618c" vector-effect="non-scaling-stroke" d="
  M 355.43 526.71
  L 358.27 522.62"
/>
<path stroke="#3d0d57" vector-effect="non-scaling-stroke" d="
  M 351.59 523.04
  L 353.36 529.10"
/>
<path stroke="#3d0d57" vector-effect="non-scaling-stroke" d="
  M 737.12 559.05
  Q 736.99 559.05 736.86 559.05
  Q 736.74 559.04 736.75 559.17
  L 737.70 567.99"
/>
<path stroke="#1c012d" vector-effect="non-scaling-stroke" d="
  M 690.76 672.77
  Q 689.73 672.83 689.25 674.31"
/>
<path stroke="#3d0d57" vector-effect="non-scaling-stroke" d="
  M 689.25 674.31
  L 688.33 677.51
  A 0.63 0.62 -77.6 0 0 688.83 678.30
  Q 691.45 678.70 692.89 677.39"
/>
<path stroke="#77618c" vector-effect="non-scaling-stroke" d="
  M 193.32 784.31
  Q 187.89 784.28 182.64 784.10
  Q 181.47 784.06 176.93 783.27
  Q 173.81 782.73 170.70 783.33"
/>
<path stroke="#3d0d57" vector-effect="non-scaling-stroke" d="
  M 127.74 716.69
  Q 129.42 714.56 128.26 713.20"
/>
<path stroke="#3d0d57" vector-effect="non-scaling-stroke" d="
  M 303.95 677.54
  L 310.75 678.24
  Q 312.19 678.39 311.26 677.29
  L 307.55 672.91"
/>
<path stroke="#3d0d57" vector-effect="non-scaling-stroke" d="
  M 355.43 526.71
  Q 354.79 526.83 354.62 525.92
  Q 354.39 524.71 353.47 524.05"
/>
<path stroke="#4a0d68" vector-effect="non-scaling-stroke" d="
  M 691.59 676.26
  Q 690.80 676.62 690.63 675.75
  Q 690.27 673.90 689.25 674.31"
/>
<path stroke="#77618c" vector-effect="non-scaling-stroke" d="
  M 402.66 394.58
  Q 402.42 399.04 402.40 404.25
  Q 402.38 408.06 400.84 410.80
  C 392.03 426.41 383.32 442.07 374.41 457.62
  Q 370.17 465.01 366.17 472.63
  A 1.12 1.12 0.0 0 0 366.67 474.16
  Q 371.25 476.41 375.49 478.22
  Q 404.50 490.62 433.61 502.75
  Q 440.73 505.72 444.39 512.84
  Q 448.51 520.85 458.56 538.42
  C 466.47 552.26 475.87 563.62 493.25 564.28
  Q 503.16 564.65 510.01 563.73
  C 524.00 561.86 533.44 551.20 540.79 538.74
  Q 549.25 524.40 557.44 509.90
  Q 559.89 505.56 563.55 503.80
  C 584.22 493.85 610.15 483.42 633.59 473.55
  A 0.56 0.56 0.0 0 0 633.88 472.82
  Q 632.90 470.47 631.62 468.08
  Q 616.52 439.72 600.96 411.60
  C 598.26 406.72 599.01 398.55 598.95 390.57"
/>
<path stroke="#867e8d" vector-effect="non-scaling-stroke" d="
  M 598.95 390.57
  L 598.77 329.63"
/>
<path stroke="#77618c" vector-effect="non-scaling-stroke" d="
  M 598.77 329.63
  L 598.74 306.62
  A 0.45 0.44 -22.6 0 0 597.98 306.31
  C 588.27 315.95 579.07 326.10 569.69 336.06
  C 563.95 342.15 558.50 348.76 552.96 355.16
  Q 552.48 355.72 551.74 355.72
  L 450.30 355.75
  A 2.44 2.41 69.4 0 1 448.46 354.90
  L 439.68 344.82"
/>
<path stroke="#867e8d" vector-effect="non-scaling-stroke" d="
  M 439.68 344.82
  L 403.61 305.79
  Q 402.72 304.83 402.72 306.14
  L 402.66 394.58"
/>
<path stroke="#eeddfd" vector-effect="non-scaling-stroke" d="
  M 439.68 344.82
  C 436.62 345.92 436.72 347.34 435.15 349.47
  Q 422.80 366.26 411.15 383.54
  Q 409.13 386.55 407.04 389.15
  Q 404.91 391.80 402.66 394.58"
/>
<path stroke="#eeddfd" vector-effect="non-scaling-stroke" d="
  M 598.77 329.63
  Q 593.11 332.27 591.69 334.21
  C 584.36 344.19 585.66 355.87 585.32 367.51
  C 585.14 373.72 591.59 382.18 595.53 386.65
  Q 596.15 387.35 596.92 388.80
  Q 597.78 390.42 598.95 390.57"
/>
<path stroke="#77618c" vector-effect="non-scaling-stroke" d="
  M 543.5311 337.4349
  A 0.26 0.26 0.0 0 0 543.2716 337.1744
  L 457.9917 337.0256
  A 0.26 0.26 0.0 0 0 457.7313 337.2851
  L 457.7289 338.6651
  A 0.26 0.26 0.0 0 0 457.9884 338.9256
  L 543.2683 339.0744
  A 0.26 0.26 0.0 0 0 543.5287 338.8149
  L 543.5311 337.4349"
/>
<path stroke="#a56cc7" vector-effect="non-scaling-stroke" d="
  M 500.2247 390.0683
  A 5.54 5.39 -2.5 0 0 494.4549 384.9251
  A 5.54 5.39 -2.5 0 0 489.1553 390.5517
  A 5.54 5.39 -2.5 0 0 494.9251 395.6949
  A 5.54 5.39 -2.5 0 0 500.2247 390.0683"
/>
<path stroke="#a56cc7" vector-effect="non-scaling-stroke" d="
  M 526.9878 386.8137
  A 1.18 1.18 0.0 0 0 525.8017 385.6399
  L 518.0818 385.6803
  A 1.18 1.18 0.0 0 0 516.9080 386.8664
  L 516.9522 395.3063
  A 1.18 1.18 0.0 0 0 518.1383 396.4801
  L 525.8582 396.4397
  A 1.18 1.18 0.0 0 0 527.0320 395.2536
  L 526.9878 386.8137"
/>
<path stroke="#a56cc7" vector-effect="non-scaling-stroke" d="
  M 471.3885 386.8970
  A 1.18 1.18 0.0 0 0 470.1942 385.7315
  L 462.1948 385.8293
  A 1.18 1.18 0.0 0 0 461.0293 387.0236
  L 461.1315 395.3830
  A 1.18 1.18 0.0 0 0 462.3258 396.5485
  L 470.3252 396.4507
  A 1.18 1.18 0.0 0 0 471.4907 395.2564
  L 471.3885 386.8970"
/>
<path stroke="#a56cc7" vector-effect="non-scaling-stroke" d="
  M 502.6847 402.7660
  A 0.82 0.82 0.0 0 0 501.8561 401.9546
  L 493.1366 402.0459
  A 0.82 0.82 0.0 0 0 492.3253 402.8745
  L 492.4153 411.4740
  A 0.82 0.82 0.0 0 0 493.2439 412.2854
  L 501.9634 412.1941
  A 0.82 0.82 0.0 0 0 502.7747 411.3655
  L 502.6847 402.7660"
/>
<path stroke="#77618c" vector-effect="non-scaling-stroke" d="
  M 562.1939 448.8848
  A 7.51 7.51 0.0 0 0 552.0987 445.5852
  L 520.5647 461.5833
  A 7.51 7.51 0.0 0 0 517.2651 471.6785
  L 517.4461 472.0352
  A 7.51 7.51 0.0 0 0 527.5413 475.3348
  L 559.0753 459.3367
  A 7.51 7.51 0.0 0 0 562.3749 449.2415
  L 562.1939 448.8848"
/>
<path stroke="#77618c" vector-effect="non-scaling-stroke" d="
  M 483.2585 471.8114
  A 7.45 7.45 0.0 0 0 479.9328 461.8142
  L 448.7268 446.1874
  A 7.45 7.45 0.0 0 0 438.7296 449.5130
  L 438.5415 449.8886
  A 7.45 7.45 0.0 0 0 441.8672 459.8858
  L 473.0732 475.5126
  A 7.45 7.45 0.0 0 0 483.0704 472.1870
  L 483.2585 471.8114"
/>
<path stroke="#77618c" vector-effect="non-scaling-stroke" d="
  M 517.27 520.47
  C 517.58 516.58 513.81 513.95 510.25 513.92
  Q 500.25 513.86 490.25 514.00
  Q 483.37 514.09 483.21 520.40
  C 483.07 525.48 490.12 533.66 493.42 537.33
  C 495.73 539.88 500.68 539.86 503.47 538.73
  C 508.10 536.84 513.28 528.22 515.87 523.92
  Q 517.17 521.76 517.27 520.47"
/>
<path stroke="#77618c" vector-effect="non-scaling-stroke" d="
  M 595.23 678.98
  Q 624.84 678.79 654.50 679.05
  Q 656.10 679.07 656.87 677.90
  Q 658.43 675.55 659.79 673.08
  Q 689.54 619.29 718.75 565.20
  Q 719.79 563.27 720.24 560.99
  Q 720.34 560.51 720.07 560.09
  Q 713.00 549.30 703.75 543.77
  Q 690.77 536.01 677.58 528.26"
/>
<path stroke="#3d0d57" vector-effect="non-scaling-stroke" d="
  M 677.58 528.26
  L 670.01 522.75
  A 0.65 0.65 0.0 0 0 669.04 522.98
  C 655.85 549.23 642.62 575.49 629.58 601.81
  Q 627.84 605.33 623.90 612.80
  C 620.46 619.34 617.76 625.35 613.56 632.34
  C 612.39 634.28 611.57 636.65 610.33 638.75
  C 608.39 642.04 607.22 644.63 605.62 647.59
  Q 604.97 648.78 604.26 651.15
  Q 603.69 653.05 602.58 654.66
  Q 600.81 657.23 600.19 658.63
  Q 598.99 661.34 597.41 663.86
  Q 597.37 663.92 597.37 663.99
  Q 597.37 664.14 597.37 664.28
  Q 597.36 664.49 597.23 664.65
  Q 595.60 666.58 594.76 668.93
  C 594.36 670.04 593.66 670.87 593.08 671.87
  C 592.09 673.58 591.92 675.98 591.49 677.95
  Q 591.39 678.40 591.78 678.64
  Q 593.39 679.65 595.23 678.98"
/>
<path stroke="#a56cc7" vector-effect="non-scaling-stroke" d="
  M 677.58 528.26
  C 673.39 536.99 667.12 547.48 663.81 553.49
  C 640.85 595.27 616.72 636.41 593.67 678.13
  Q 593.42 678.58 593.84 678.88
  Q 594.44 679.29 595.23 678.98"
/>
<path stroke="#77618c" vector-effect="non-scaling-stroke" d="
  M 321.46 528.41
  C 315.94 531.57 274.52 554.65 278.40 561.56"
/>
<path stroke="#1c012d" vector-effect="non-scaling-stroke" d="
  M 278.40 561.56
  C 275.63 563.88 276.19 569.53 276.24 573.89
  C 276.33 581.50 281.28 588.38 284.90 594.78
  C 286.74 598.04 289.85 602.74 292.01 606.95
  C 297.07 616.76 302.24 626.46 307.94 635.93
  C 310.31 639.87 312.89 644.06 314.53 648.37
  C 315.44 650.77 317.23 652.68 318.66 654.79
  Q 318.84 655.06 320.60 658.73
  Q 321.51 660.63 323.22 662.00
  Q 323.62 662.31 323.81 662.79
  Q 324.63 664.82 325.82 666.66
  Q 326.73 668.07 327.94 670.61
  Q 329.86 674.66 334.03 676.82
  C 334.75 677.19 335.35 677.79 336.05 678.02
  Q 340.23 679.35 343.71 678.78"
/>
<path stroke="#77618c" vector-effect="non-scaling-stroke" d="
  M 343.71 678.78
  L 403.21 678.87"
/>
<path stroke="#3d0d57" vector-effect="non-scaling-stroke" d="
  M 403.21 678.87
  L 411.48 678.51
  A 0.56 0.55 75.3 0 0 411.95 677.70
  C 395.46 645.56 378.24 613.87 361.49 581.88
  Q 346.12 552.54 330.20 523.39
  A 0.78 0.77 58.2 0 0 329.07 523.12
  L 321.46 528.41"
/>
<path stroke="#a56cc7" vector-effect="non-scaling-stroke" d="
  M 403.21 678.87
  Q 403.61 678.90 403.85 678.78
  A 0.53 0.53 0.0 0 0 404.07 678.05
  L 321.46 528.41"
/>
<path stroke="#84619d" vector-effect="non-scaling-stroke" d="
  M 343.71 678.78
  L 278.40 561.56"
/>
<path stroke="#6b4486" vector-effect="non-scaling-stroke" d="
  M 157.77 699.08
  C 148.27 704.60 145.80 714.68 145.85 725.03"
/>
<path stroke="#3d0d57" vector-effect="non-scaling-stroke" d="
  M 145.85 725.03
  Q 145.10 744.27 158.51 756.18"
/>
<path stroke="#77618c" vector-effect="non-scaling-stroke" d="
  M 158.51 756.18
  L 166.99 763.18
  A 1.41 1.37 63.7 0 0 167.90 763.50
  Q 172.08 763.47 176.25 763.51
  Q 196.00 763.67 215.75 763.69
  Q 520.12 764.04 824.50 764.00
  C 852.71 764.00 861.40 733.33 853.58 711.08
  C 851.33 704.69 845.54 697.29 838.25 696.55
  Q 835.84 696.30 827.58 696.31
  Q 738.67 696.38 649.77 696.35
  Q 632.88 696.34 615.78 696.56
  A 1.83 1.81 -79.1 0 0 614.13 697.69
  Q 612.53 701.59 610.84 705.68
  C 604.24 721.58 589.13 736.49 570.75 736.49
  Q 499.63 736.50 428.50 736.26
  C 418.70 736.23 411.58 732.51 403.96 726.78"
/>
<path stroke="#867e8d" vector-effect="non-scaling-stroke" d="
  M 403.96 726.78
  C 394.32 718.46 389.90 709.18 386.19 697.86
  A 2.28 2.28 0.0 0 0 384.02 696.28
  Q 278.40 696.26 173.50 696.16
  C 167.90 696.16 161.90 696.01 157.77 699.08"
/>
<path stroke="#eeddfd" vector-effect="non-scaling-stroke" d="
  M 403.96 726.78
  C 402.12 728.41 399.96 724.95 398.25 724.93
  Q 342.73 724.53 160.25 724.94
  Q 158.44 724.95 158.10 724.01"
/>
<path stroke="#e1c1f6" vector-effect="non-scaling-stroke" d="
  M 158.10 724.01
  L 157.77 699.08"
/>
<path stroke="#a56cc7" vector-effect="non-scaling-stroke" d="
  M 158.51 756.18
  Q 157.46 740.74 158.00 725.18"
/>
<path stroke="#d3a4f6" vector-effect="non-scaling-stroke" d="
  M 158.00 725.18
  L 158.10 724.01"
/>
<path stroke="#9950c0" vector-effect="non-scaling-stroke" d="
  M 158.00 725.18
  L 145.85 725.03"
/>
<path stroke="#6b4486" vector-effect="non-scaling-stroke" d="
  M 405.52 697.20
  C 406.57 706.92 415.89 719.27 426.50 719.26
  Q 500.25 719.23 574.00 719.10
  C 585.06 719.08 592.92 707.01 594.30 697.27
  A 0.66 0.66 0.0 0 0 593.65 696.52
  L 406.09 696.56
  A 0.58 0.57 86.9 0 0 405.52 697.20"
/>
</g>
<path fill="#0f011c" d="
  M 618.84 336.81
  Q 616.85 339.94 617.95 345.46
  Q 617.01 353.75 617.92 361.95
  Q 616.70 365.17 617.89 367.61
  Q 616.67 372.92 617.18 376.76
  Q 618.05 383.23 617.76 388.58
  Q 617.37 395.97 617.50 397.42
  Q 618.41 407.75 623.56 417.70
  Q 634.68 439.20 645.94 460.60
  Q 650.46 469.17 651.93 474.34
  C 654.05 481.83 650.11 486.11 644.09 489.88
  A 1.61 1.56 26.7 0 1 643.32 490.12
  Q 643.15 490.12 642.99 490.12
  Q 642.84 490.12 642.77 490.25
  Q 640.12 495.05 641.51 500.21
  L 637.77 493.06
  Q 637.40 492.36 636.68 492.68
  L 621.66 499.43
  L 604.75 507.00
  Q 602.23 506.79 600.14 508.16
  A 1.25 1.25 0.0 0 1 599.48 508.37
  Q 599.30 508.38 599.13 508.38
  Q 598.75 508.39 598.41 508.52
  C 595.17 509.77 592.23 511.22 588.83 512.64
  C 585.02 514.23 581.66 516.32 577.84 518.16
  C 574.70 519.66 569.42 522.54 567.93 525.48
  Q 557.18 546.64 550.31 556.53
  C 539.01 572.78 524.65 582.24 504.69 584.07
  C 486.60 585.73 469.20 579.43 456.67 566.20
  C 446.47 555.42 439.61 540.40 432.52 527.49
  Q 429.67 522.29 424.51 519.91
  C 421.24 518.40 419.01 515.84 415.12 516.01
  Q 414.50 515.67 413.91 515.41
  Q 396.16 507.64 378.45 499.80
  Q 377.45 499.36 374.10 498.35
  Q 370.55 496.97 370.11 498.32
  C 365.90 492.63 356.36 491.28 350.86 486.94
  C 344.56 481.97 347.49 473.23 350.91 466.88
  Q 364.29 442.05 377.71 417.26
  C 381.41 410.44 383.74 404.53 384.06 397.51
  C 384.26 393.06 383.44 387.86 383.58 383.16
  Q 383.81 375.29 383.79 367.41
  C 383.77 361.59 384.73 352.40 383.77 344.76
  Q 384.77 340.07 383.27 336.88
  Q 382.29 328.12 382.96 319.48
  Q 384.62 313.87 383.87 307.38
  L 383.81 303.99
  Q 384.58 297.41 383.25 291.63
  Q 383.27 284.65 383.28 277.25
  Q 383.28 276.37 383.78 274.71
  Q 383.92 274.25 384.39 274.15
  C 393.64 272.16 398.74 274.98 405.04 281.76
  C 414.30 291.72 423.79 301.48 433.17 311.33
  C 441.04 319.58 448.76 319.09 459.75 319.09
  Q 505.00 319.08 550.25 319.05
  C 558.95 319.05 563.49 315.73 569.93 309.27
  Q 583.81 295.34 597.31 281.07
  C 602.07 276.05 612.35 271.83 615.63 281.25
  C 617.89 287.72 617.45 295.32 617.51 302.09
  C 617.54 306.91 618.18 313.12 617.92 318.72
  C 617.63 324.86 619.12 330.69 618.84 336.81
  Z
  M 402.66 394.58
  Q 402.42 399.04 402.40 404.25
  Q 402.38 408.06 400.84 410.80
  C 392.03 426.41 383.32 442.07 374.41 457.62
  Q 370.17 465.01 366.17 472.63
  A 1.12 1.12 0.0 0 0 366.67 474.16
  Q 371.25 476.41 375.49 478.22
  Q 404.50 490.62 433.61 502.75
  Q 440.73 505.72 444.39 512.84
  Q 448.51 520.85 458.56 538.42
  C 466.47 552.26 475.87 563.62 493.25 564.28
  Q 503.16 564.65 510.01 563.73
  C 524.00 561.86 533.44 551.20 540.79 538.74
  Q 549.25 524.40 557.44 509.90
  Q 559.89 505.56 563.55 503.80
  C 584.22 493.85 610.15 483.42 633.59 473.55
  A 0.56 0.56 0.0 0 0 633.88 472.82
  Q 632.90 470.47 631.62 468.08
  Q 616.52 439.72 600.96 411.60
  C 598.26 406.72 599.01 398.55 598.95 390.57
  L 598.77 329.63
  L 598.74 306.62
  A 0.45 0.44 -22.6 0 0 597.98 306.31
  C 588.27 315.95 579.07 326.10 569.69 336.06
  C 563.95 342.15 558.50 348.76 552.96 355.16
  Q 552.48 355.72 551.74 355.72
  L 450.30 355.75
  A 2.44 2.41 69.4 0 1 448.46 354.90
  L 439.68 344.82
  L 403.61 305.79
  Q 402.72 304.83 402.72 306.14
  L 402.66 394.58
  Z
  M 543.5311 337.4349
  A 0.26 0.26 0.0 0 0 543.2716 337.1744
  L 457.9917 337.0256
  A 0.26 0.26 0.0 0 0 457.7313 337.2851
  L 457.7289 338.6651
  A 0.26 0.26 0.0 0 0 457.9884 338.9256
  L 543.2683 339.0744
  A 0.26 0.26 0.0 0 0 543.5287 338.8149
  L 543.5311 337.4349
  Z"
/>
<path fill="#6b1891" d="
  M 383.25 291.63
  Q 384.58 297.41 383.81 303.99
  Q 382.48 297.85 383.25 291.63
  Z"
/>
<path fill="#fcfafd" d="
  M 439.68 344.82
  C 436.62 345.92 436.72 347.34 435.15 349.47
  Q 422.80 366.26 411.15 383.54
  Q 409.13 386.55 407.04 389.15
  Q 404.91 391.80 402.66 394.58
  L 402.72 306.14
  Q 402.72 304.83 403.61 305.79
  L 439.68 344.82
  Z"
/>
<path fill="#dfc0fc" d="
  M 598.77 329.63
  Q 593.11 332.27 591.69 334.21
  C 584.36 344.19 585.66 355.87 585.32 367.51
  C 585.14 373.72 591.59 382.18 595.53 386.65
  Q 596.15 387.35 596.92 388.80
  Q 597.78 390.42 598.95 390.57
  C 599.01 398.55 598.26 406.72 600.96 411.60
  Q 616.52 439.72 631.62 468.08
  Q 632.90 470.47 633.88 472.82
  A 0.56 0.56 0.0 0 1 633.59 473.55
  C 610.15 483.42 584.22 493.85 563.55 503.80
  Q 559.89 505.56 557.44 509.90
  Q 549.25 524.40 540.79 538.74
  C 533.44 551.20 524.00 561.86 510.01 563.73
  Q 503.16 564.65 493.25 564.28
  C 475.87 563.62 466.47 552.26 458.56 538.42
  Q 448.51 520.85 444.39 512.84
  Q 440.73 505.72 433.61 502.75
  Q 404.50 490.62 375.49 478.22
  Q 371.25 476.41 366.67 474.16
  A 1.12 1.12 0.0 0 1 366.17 472.63
  Q 370.17 465.01 374.41 457.62
  C 383.32 442.07 392.03 426.41 400.84 410.80
  Q 402.38 408.06 402.40 404.25
  Q 402.42 399.04 402.66 394.58
  Q 404.91 391.80 407.04 389.15
  Q 409.13 386.55 411.15 383.54
  Q 422.80 366.26 435.15 349.47
  C 436.72 347.34 436.62 345.92 439.68 344.82
  L 448.46 354.90
  A 2.44 2.41 69.4 0 0 450.30 355.75
  L 551.74 355.72
  Q 552.48 355.72 552.96 355.16
  C 558.50 348.76 563.95 342.15 569.69 336.06
  C 579.07 326.10 588.27 315.95 597.98 306.31
  A 0.45 0.44 -22.6 0 1 598.74 306.62
  L 598.77 329.63
  Z
  M 500.2247 390.0683
  A 5.54 5.39 -2.5 0 0 494.4549 384.9251
  A 5.54 5.39 -2.5 0 0 489.1553 390.5517
  A 5.54 5.39 -2.5 0 0 494.9251 395.6949
  A 5.54 5.39 -2.5 0 0 500.2247 390.0683
  Z
  M 526.9878 386.8137
  A 1.18 1.18 0.0 0 0 525.8017 385.6399
  L 518.0818 385.6803
  A 1.18 1.18 0.0 0 0 516.9080 386.8664
  L 516.9522 395.3063
  A 1.18 1.18 0.0 0 0 518.1383 396.4801
  L 525.8582 396.4397
  A 1.18 1.18 0.0 0 0 527.0320 395.2536
  L 526.9878 386.8137
  Z
  M 471.3885 386.8970
  A 1.18 1.18 0.0 0 0 470.1942 385.7315
  L 462.1948 385.8293
  A 1.18 1.18 0.0 0 0 461.0293 387.0236
  L 461.1315 395.3830
  A 1.18 1.18 0.0 0 0 462.3258 396.5485
  L 470.3252 396.4507
  A 1.18 1.18 0.0 0 0 471.4907 395.2564
  L 471.3885 386.8970
  Z
  M 502.6847 402.7660
  A 0.82 0.82 0.0 0 0 501.8561 401.9546
  L 493.1366 402.0459
  A 0.82 0.82 0.0 0 0 492.3253 402.8745
  L 492.4153 411.4740
  A 0.82 0.82 0.0 0 0 493.2439 412.2854
  L 501.9634 412.1941
  A 0.82 0.82 0.0 0 0 502.7747 411.3655
  L 502.6847 402.7660
  Z
  M 562.1939 448.8848
  A 7.51 7.51 0.0 0 0 552.0987 445.5852
  L 520.5647 461.5833
  A 7.51 7.51 0.0 0 0 517.2651 471.6785
  L 517.4461 472.0352
  A 7.51 7.51 0.0 0 0 527.5413 475.3348
  L 559.0753 459.3367
  A 7.51 7.51 0.0 0 0 562.3749 449.2415
  L 562.1939 448.8848
  Z
  M 483.2585 471.8114
  A 7.45 7.45 0.0 0 0 479.9328 461.8142
  L 448.7268 446.1874
  A 7.45 7.45 0.0 0 0 438.7296 449.5130
  L 438.5415 449.8886
  A 7.45 7.45 0.0 0 0 441.8672 459.8858
  L 473.0732 475.5126
  A 7.45 7.45 0.0 0 0 483.0704 472.1870
  L 483.2585 471.8114
  Z
  M 517.27 520.47
  C 517.58 516.58 513.81 513.95 510.25 513.92
  Q 500.25 513.86 490.25 514.00
  Q 483.37 514.09 483.21 520.40
  C 483.07 525.48 490.12 533.66 493.42 537.33
  C 495.73 539.88 500.68 539.86 503.47 538.73
  C 508.10 536.84 513.28 528.22 515.87 523.92
  Q 517.17 521.76 517.27 520.47
  Z"
/>
<path fill="#6b1891" d="
  M 383.87 307.38
  Q 384.62 313.87 382.96 319.48
  Q 382.47 313.37 383.87 307.38
  Z"
/>
<ellipse fill="#0f011c" cx="0.00" cy="0.00" transform="translate(638.65,319.79) rotate(92.2)" rx="0.86" ry="0.39"/>
<path fill="#fcfafd" d="
  M 598.77 329.63
  L 598.95 390.57
  Q 597.78 390.42 596.92 388.80
  Q 596.15 387.35 595.53 386.65
  C 591.59 382.18 585.14 373.72 585.32 367.51
  C 585.66 355.87 584.36 344.19 591.69 334.21
  Q 593.11 332.27 598.77 329.63
  Z"
/>
<path fill="#fcfafd" d="
  M 383.27 336.88
  Q 384.77 340.07 383.77 344.76
  L 383.27 336.88
  Z"
/>
<rect fill="#dfc0fc" x="-42.90" y="-0.95" transform="translate(500.63,338.05) rotate(0.1)" width="85.80" height="1.90" rx="0.26"/>
<path fill="#dfc0fc" d="
  M 618.84 336.81
  L 617.95 345.46
  Q 616.85 339.94 618.84 336.81
  Z"
/>
<path fill="#6b1891" d="
  M 617.92 361.95
  L 617.89 367.61
  Q 616.70 365.17 617.92 361.95
  Z"
/>
<ellipse fill="#6b1891" cx="0.00" cy="0.00" transform="translate(494.69,390.31) rotate(-2.5)" rx="5.54" ry="5.39"/>
<rect fill="#6b1891" x="-5.04" y="-5.40" transform="translate(521.97,391.06) rotate(-0.3)" width="10.08" height="10.80" rx="1.18"/>
<rect fill="#6b1891" x="-5.18" y="-5.36" transform="translate(466.26,391.14) rotate(-0.7)" width="10.36" height="10.72" rx="1.18"/>
<rect fill="#6b1891" x="-5.18" y="-5.12" transform="translate(497.55,407.12) rotate(-0.6)" width="10.36" height="10.24" rx="0.82"/>
<path fill="#0f011c" d="
  M 283.46 406.20
  Q 284.06 406.37 283.47 406.55
  L 281.98 407.01
  A 0.24 0.24 0.0 0 1 281.75 406.60
  Q 282.48 405.93 283.46 406.20
  Z"
/>
<ellipse fill="#0f011c" cx="0.00" cy="0.00" transform="translate(60.00,420.90) rotate(-40.3)" rx="1.78" ry="0.26"/>
<rect fill="#0f011c" x="-25.19" y="-7.71" transform="translate(539.82,460.46) rotate(-26.9)" width="50.38" height="15.42" rx="7.51"/>
<rect fill="#0f011c" x="-24.90" y="-7.66" transform="translate(460.90,460.85) rotate(26.6)" width="49.80" height="15.32" rx="7.45"/>
<path fill="#c687ef" d="
  M 641.51 500.21
  C 643.43 505.35 646.50 510.24 649.80 514.48
  Q 652.28 516.45 651.77 518.00
  Q 650.52 521.80 646.44 529.45
  Q 634.60 515.14 625.21 499.24
  Q 624.94 498.79 624.42 498.89
  L 621.66 499.43
  L 636.68 492.68
  Q 637.40 492.36 637.77 493.06
  L 641.51 500.21
  Z"
/>
<path fill="#28013e" d="
  M 374.10 498.35
  L 370.62 504.17
  Q 370.96 501.10 370.11 498.32
  Q 370.55 496.97 374.10 498.35
  Z"
/>
<path fill="#dfc0fc" d="
  M 374.10 498.35
  Q 377.45 499.36 378.45 499.80
  Q 396.16 507.64 413.91 515.41
  Q 414.50 515.67 415.12 516.01
  Q 415.37 516.56 415.74 517.19
  Q 451.68 578.31 488.59 638.86
  Q 494.05 647.82 499.97 656.40
  A 0.57 0.57 0.0 0 0 500.92 656.38
  Q 543.88 587.00 585.67 516.85
  C 586.49 515.46 587.36 514.86 588.77 514.27
  Q 596.82 510.87 604.75 507.00
  L 621.66 499.43
  L 624.42 498.89
  Q 624.94 498.79 625.21 499.24
  Q 634.60 515.14 646.44 529.45
  C 622.97 576.84 598.03 623.31 573.68 670.17
  Q 571.53 674.31 569.15 678.16
  A 1.30 1.30 0.0 0 1 568.04 678.78
  L 433.06 678.81
  A 0.83 0.82 76.6 0 1 432.32 678.35
  C 431.35 676.29 429.93 674.26 428.98 672.48
  Q 402.08 621.89 375.20 571.30
  Q 361.74 545.98 353.36 529.10
  Q 354.96 527.74 355.43 526.71
  L 358.27 522.62
  Q 365.74 514.10 370.62 504.17
  L 374.10 498.35
  Z"
/>
<path fill="#0f011c" d="
  M 351.59 523.04
  L 353.36 529.10
  Q 361.74 545.98 375.20 571.30
  Q 402.08 621.89 428.98 672.48
  C 429.93 674.26 431.35 676.29 432.32 678.35
  A 0.83 0.82 76.6 0 0 433.06 678.81
  L 568.04 678.78
  A 1.30 1.30 0.0 0 0 569.15 678.16
  Q 571.53 674.31 573.68 670.17
  C 598.03 623.31 622.97 576.84 646.44 529.45
  Q 650.52 521.80 651.77 518.00
  Q 652.28 516.45 649.80 514.48
  Q 651.30 513.39 652.91 513.98
  Q 653.40 514.16 653.66 514.09
  Q 653.86 514.04 654.05 513.95
  Q 654.46 513.73 654.01 513.61
  Q 652.54 513.20 651.01 513.34
  Q 650.20 513.41 649.74 512.93
  Q 649.32 512.48 649.93 512.54
  Q 652.46 512.80 654.92 512.17
  Q 655.52 512.02 654.92 511.87
  L 654.56 511.77
  Q 654.49 511.75 654.53 511.69
  C 655.73 509.82 657.43 508.79 658.60 507.00
  Q 659.63 505.42 660.60 504.34
  C 665.40 498.98 677.22 505.38 682.02 508.04
  Q 705.17 520.87 711.65 524.83
  C 720.40 530.16 731.81 541.46 734.15 551.98
  Q 735.19 556.65 737.12 559.05
  Q 736.99 559.05 736.86 559.05
  Q 736.74 559.04 736.75 559.17
  L 737.70 567.99
  Q 737.30 580.06 731.95 589.24
  C 727.32 597.19 722.44 604.59 719.49 613.53
  Q 717.93 618.28 715.87 622.21
  Q 704.59 643.82 693.52 665.52
  Q 691.79 668.90 691.30 671.17
  Q 691.06 672.47 690.76 672.77
  Q 689.73 672.83 689.25 674.31
  L 688.33 677.51
  A 0.63 0.62 -77.6 0 0 688.83 678.30
  Q 691.45 678.70 692.89 677.39
  L 696.30 678.22
  Q 702.06 678.79 707.89 678.72
  C 711.28 678.69 714.32 679.75 717.65 679.75
  C 723.37 679.75 728.75 679.60 734.77 679.82
  C 749.83 680.38 766.15 678.99 783.58 679.22
  C 787.65 679.28 792.02 678.93 796.25 678.85
  C 808.83 678.64 821.69 678.00 834.23 678.91
  C 837.39 679.14 840.90 678.68 843.59 678.96
  Q 854.17 680.06 860.74 688.12
  C 863.14 691.07 865.08 695.30 867.11 698.97
  Q 868.87 702.16 870.23 705.89
  C 872.39 711.81 874.69 716.32 874.45 723.25
  C 874.27 728.43 875.02 734.84 873.31 739.69
  Q 871.04 746.13 868.27 752.38
  C 860.75 769.36 846.40 781.21 828.24 783.68
  Q 820.04 784.80 811.75 784.81
  Q 791.83 784.83 771.92 785.56
  C 762.97 785.89 754.31 784.93 745.46 784.94
  C 587.86 785.05 433.03 784.56 272.50 784.95
  Q 255.78 784.99 235.91 784.25
  C 224.53 783.82 214.17 784.21 203.25 784.74
  Q 200.13 784.89 193.32 784.31
  Q 187.89 784.28 182.64 784.10
  Q 181.47 784.06 176.93 783.27
  Q 173.81 782.73 170.70 783.33
  Q 167.51 781.53 164.27 780.01
  C 156.11 776.17 149.69 771.03 144.44 763.70
  C 140.95 758.82 137.68 751.57 134.43 745.55
  Q 130.12 737.60 129.49 734.25
  C 128.32 728.09 126.75 723.81 127.74 716.69
  Q 129.42 714.56 128.26 713.20
  Q 129.00 704.39 134.57 697.33
  C 140.64 689.66 149.38 682.15 159.37 681.57
  Q 166.41 681.16 173.44 680.58
  C 177.29 680.26 182.51 680.76 187.04 680.33
  C 193.21 679.74 199.39 679.81 205.57 679.43
  C 208.70 679.23 211.49 679.98 214.53 679.96
  C 228.55 679.87 242.51 678.76 256.50 678.71
  C 269.66 678.66 282.83 678.52 296.00 678.48
  Q 299.39 678.48 303.95 677.54
  L 310.75 678.24
  Q 312.19 678.39 311.26 677.29
  L 307.55 672.91
  Q 306.98 669.16 305.95 667.30
  C 292.10 642.26 277.73 617.37 264.57 591.96
  C 260.13 583.39 259.48 573.65 260.71 563.88
  C 263.27 543.52 275.90 530.61 293.34 521.12
  Q 308.89 512.67 324.37 504.10
  C 330.49 500.72 337.03 499.32 341.30 506.49
  Q 344.96 512.64 348.30 519.00
  Q 349.54 521.36 351.59 523.04
  Z
  M 595.23 678.98
  Q 624.84 678.79 654.50 679.05
  Q 656.10 679.07 656.87 677.90
  Q 658.43 675.55 659.79 673.08
  Q 689.54 619.29 718.75 565.20
  Q 719.79 563.27 720.24 560.99
  Q 720.34 560.51 720.07 560.09
  Q 713.00 549.30 703.75 543.77
  Q 690.77 536.01 677.58 528.26
  L 670.01 522.75
  A 0.65 0.65 0.0 0 0 669.04 522.98
  C 655.85 549.23 642.62 575.49 629.58 601.81
  Q 627.84 605.33 623.90 612.80
  C 620.46 619.34 617.76 625.35 613.56 632.34
  C 612.39 634.28 611.57 636.65 610.33 638.75
  C 608.39 642.04 607.22 644.63 605.62 647.59
  Q 604.97 648.78 604.26 651.15
  Q 603.69 653.05 602.58 654.66
  Q 600.81 657.23 600.19 658.63
  Q 598.99 661.34 597.41 663.86
  Q 597.37 663.92 597.37 663.99
  Q 597.37 664.14 597.37 664.28
  Q 597.36 664.49 597.23 664.65
  Q 595.60 666.58 594.76 668.93
  C 594.36 670.04 593.66 670.87 593.08 671.87
  C 592.09 673.58 591.92 675.98 591.49 677.95
  Q 591.39 678.40 591.78 678.64
  Q 593.39 679.65 595.23 678.98
  Z
  M 321.46 528.41
  C 315.94 531.57 274.52 554.65 278.40 561.56
  C 275.63 563.88 276.19 569.53 276.24 573.89
  C 276.33 581.50 281.28 588.38 284.90 594.78
  C 286.74 598.04 289.85 602.74 292.01 606.95
  C 297.07 616.76 302.24 626.46 307.94 635.93
  C 310.31 639.87 312.89 644.06 314.53 648.37
  C 315.44 650.77 317.23 652.68 318.66 654.79
  Q 318.84 655.06 320.60 658.73
  Q 321.51 660.63 323.22 662.00
  Q 323.62 662.31 323.81 662.79
  Q 324.63 664.82 325.82 666.66
  Q 326.73 668.07 327.94 670.61
  Q 329.86 674.66 334.03 676.82
  C 334.75 677.19 335.35 677.79 336.05 678.02
  Q 340.23 679.35 343.71 678.78
  L 403.21 678.87
  L 411.48 678.51
  A 0.56 0.55 75.3 0 0 411.95 677.70
  C 395.46 645.56 378.24 613.87 361.49 581.88
  Q 346.12 552.54 330.20 523.39
  A 0.78 0.77 58.2 0 0 329.07 523.12
  L 321.46 528.41
  Z
  M 157.77 699.08
  C 148.27 704.60 145.80 714.68 145.85 725.03
  Q 145.10 744.27 158.51 756.18
  L 166.99 763.18
  A 1.41 1.37 63.7 0 0 167.90 763.50
  Q 172.08 763.47 176.25 763.51
  Q 196.00 763.67 215.75 763.69
  Q 520.12 764.04 824.50 764.00
  C 852.71 764.00 861.40 733.33 853.58 711.08
  C 851.33 704.69 845.54 697.29 838.25 696.55
  Q 835.84 696.30 827.58 696.31
  Q 738.67 696.38 649.77 696.35
  Q 632.88 696.34 615.78 696.56
  A 1.83 1.81 -79.1 0 0 614.13 697.69
  Q 612.53 701.59 610.84 705.68
  C 604.24 721.58 589.13 736.49 570.75 736.49
  Q 499.63 736.50 428.50 736.26
  C 418.70 736.23 411.58 732.51 403.96 726.78
  C 394.32 718.46 389.90 709.18 386.19 697.86
  A 2.28 2.28 0.0 0 0 384.02 696.28
  Q 278.40 696.26 173.50 696.16
  C 167.90 696.16 161.90 696.01 157.77 699.08
  Z
  M 405.52 697.20
  C 406.57 706.92 415.89 719.27 426.50 719.26
  Q 500.25 719.23 574.00 719.10
  C 585.06 719.08 592.92 707.01 594.30 697.27
  A 0.66 0.66 0.0 0 0 593.65 696.52
  L 406.09 696.56
  A 0.58 0.57 86.9 0 0 405.52 697.20
  Z"
/>
<path fill="#6b1891" d="
  M 604.75 507.00
  Q 596.82 510.87 588.77 514.27
  C 587.36 514.86 586.49 515.46 585.67 516.85
  Q 543.88 587.00 500.92 656.38
  A 0.57 0.57 0.0 0 1 499.97 656.40
  Q 494.05 647.82 488.59 638.86
  Q 451.68 578.31 415.74 517.19
  Q 415.37 516.56 415.12 516.01
  C 419.01 515.84 421.24 518.40 424.51 519.91
  Q 429.67 522.29 432.52 527.49
  C 439.61 540.40 446.47 555.42 456.67 566.20
  C 469.20 579.43 486.60 585.73 504.69 584.07
  C 524.65 582.24 539.01 572.78 550.31 556.53
  Q 557.18 546.64 567.93 525.48
  C 569.42 522.54 574.70 519.66 577.84 518.16
  C 581.66 516.32 585.02 514.23 588.83 512.64
  C 592.23 511.22 595.17 509.77 598.41 508.52
  Q 598.75 508.39 599.13 508.38
  Q 599.30 508.38 599.48 508.37
  A 1.25 1.25 0.0 0 0 600.14 508.16
  Q 602.23 506.79 604.75 507.00
  Z"
/>
<path fill="#0f011c" d="
  M 515.87 523.92
  C 513.28 528.22 508.10 536.84 503.47 538.73
  C 500.68 539.86 495.73 539.88 493.42 537.33
  C 490.12 533.66 483.07 525.48 483.21 520.40
  Q 483.37 514.09 490.25 514.00
  Q 500.25 513.86 510.25 513.92
  C 513.81 513.95 517.58 516.58 517.27 520.47
  Q 517.17 521.76 515.87 523.92
  Z"
/>
<path fill="#0f011c" d="
  M 358.27 522.62
  L 355.43 526.71
  Q 354.79 526.83 354.62 525.92
  Q 354.39 524.71 353.47 524.05
  Q 356.02 523.93 358.27 522.62
  Z"
/>
<path fill="#6b1891" d="
  M 677.58 528.26
  C 673.39 536.99 667.12 547.48 663.81 553.49
  C 640.85 595.27 616.72 636.41 593.67 678.13
  Q 593.42 678.58 593.84 678.88
  Q 594.44 679.29 595.23 678.98
  Q 593.39 679.65 591.78 678.64
  Q 591.39 678.40 591.49 677.95
  C 591.92 675.98 592.09 673.58 593.08 671.87
  C 593.66 670.87 594.36 670.04 594.76 668.93
  Q 595.60 666.58 597.23 664.65
  Q 597.36 664.49 597.37 664.28
  Q 597.37 664.14 597.37 663.99
  Q 597.37 663.92 597.41 663.86
  Q 598.99 661.34 600.19 658.63
  Q 600.81 657.23 602.58 654.66
  Q 603.69 653.05 604.26 651.15
  Q 604.97 648.78 605.62 647.59
  C 607.22 644.63 608.39 642.04 610.33 638.75
  C 611.57 636.65 612.39 634.28 613.56 632.34
  C 617.76 625.35 620.46 619.34 623.90 612.80
  Q 627.84 605.33 629.58 601.81
  C 642.62 575.49 655.85 549.23 669.04 522.98
  A 0.65 0.65 0.0 0 1 670.01 522.75
  L 677.58 528.26
  Z"
/>
<path fill="#6b1891" d="
  M 403.21 678.87
  Q 403.61 678.90 403.85 678.78
  A 0.53 0.53 0.0 0 0 404.07 678.05
  L 321.46 528.41
  L 329.07 523.12
  A 0.78 0.77 58.2 0 1 330.20 523.39
  Q 346.12 552.54 361.49 581.88
  C 378.24 613.87 395.46 645.56 411.95 677.70
  A 0.56 0.55 75.3 0 1 411.48 678.51
  L 403.21 678.87
  Z"
/>
<path fill="#6b1891" d="
  M 351.59 523.04
  L 353.47 524.05
  Q 354.39 524.71 354.62 525.92
  Q 354.79 526.83 355.43 526.71
  Q 354.96 527.74 353.36 529.10
  L 351.59 523.04
  Z"
/>
<path fill="#dfc0fc" d="
  M 321.46 528.41
  L 404.07 678.05
  A 0.53 0.53 0.0 0 1 403.85 678.78
  Q 403.61 678.90 403.21 678.87
  L 343.71 678.78
  L 278.40 561.56
  C 274.52 554.65 315.94 531.57 321.46 528.41
  Z"
/>
<path fill="#dfc0fc" d="
  M 677.58 528.26
  Q 690.77 536.01 703.75 543.77
  Q 713.00 549.30 720.07 560.09
  Q 720.34 560.51 720.24 560.99
  Q 719.79 563.27 718.75 565.20
  Q 689.54 619.29 659.79 673.08
  Q 658.43 675.55 656.87 677.90
  Q 656.10 679.07 654.50 679.05
  Q 624.84 678.79 595.23 678.98
  Q 594.44 679.29 593.84 678.88
  Q 593.42 678.58 593.67 678.13
  C 616.72 636.41 640.85 595.27 663.81 553.49
  C 667.12 547.48 673.39 536.99 677.58 528.26
  Z"
/>
<path fill="#6b1891" d="
  M 737.12 559.05
  Q 738.70 562.61 737.70 567.99
  L 736.75 559.17
  Q 736.74 559.04 736.86 559.05
  Q 736.99 559.05 737.12 559.05
  Z"
/>
<path fill="#28013e" d="
  M 278.40 561.56
  L 343.71 678.78
  Q 340.23 679.35 336.05 678.02
  C 335.35 677.79 334.75 677.19 334.03 676.82
  Q 329.86 674.66 327.94 670.61
  Q 326.73 668.07 325.82 666.66
  Q 324.63 664.82 323.81 662.79
  Q 323.62 662.31 323.22 662.00
  Q 321.51 660.63 320.60 658.73
  Q 318.84 655.06 318.66 654.79
  C 317.23 652.68 315.44 650.77 314.53 648.37
  C 312.89 644.06 310.31 639.87 307.94 635.93
  C 302.24 626.46 297.07 616.76 292.01 606.95
  C 289.85 602.74 286.74 598.04 284.90 594.78
  C 281.28 588.38 276.33 581.50 276.24 573.89
  C 276.19 569.53 275.63 563.88 278.40 561.56
  Z"
/>
<path fill="#28013e" d="
  M 690.76 672.77
  L 691.59 676.26
  Q 690.80 676.62 690.63 675.75
  Q 690.27 673.90 689.25 674.31
  Q 689.73 672.83 690.76 672.77
  Z"
/>
<path fill="#6b1891" d="
  M 303.95 677.54
  Q 308.15 676.26 307.55 672.91
  L 311.26 677.29
  Q 312.19 678.39 310.75 678.24
  L 303.95 677.54
  Z"
/>
<path fill="#6b1891" d="
  M 691.59 676.26
  L 692.89 677.39
  Q 691.45 678.70 688.83 678.30
  A 0.63 0.62 -77.6 0 1 688.33 677.51
  L 689.25 674.31
  Q 690.27 673.90 690.63 675.75
  Q 690.80 676.62 691.59 676.26
  Z"
/>
<path fill="#fcfafd" d="
  M 403.96 726.78
  C 402.12 728.41 399.96 724.95 398.25 724.93
  Q 342.73 724.53 160.25 724.94
  Q 158.44 724.95 158.10 724.01
  L 157.77 699.08
  C 161.90 696.01 167.90 696.16 173.50 696.16
  Q 278.40 696.26 384.02 696.28
  A 2.28 2.28 0.0 0 1 386.19 697.86
  C 389.90 709.18 394.32 718.46 403.96 726.78
  Z"
/>
<path fill="#dfc0fc" d="
  M 158.51 756.18
  Q 157.46 740.74 158.00 725.18
  L 158.10 724.01
  Q 158.44 724.95 160.25 724.94
  Q 342.73 724.53 398.25 724.93
  C 399.96 724.95 402.12 728.41 403.96 726.78
  C 411.58 732.51 418.70 736.23 428.50 736.26
  Q 499.63 736.50 570.75 736.49
  C 589.13 736.49 604.24 721.58 610.84 705.68
  Q 612.53 701.59 614.13 697.69
  A 1.83 1.81 -79.1 0 1 615.78 696.56
  Q 632.88 696.34 649.77 696.35
  Q 738.67 696.38 827.58 696.31
  Q 835.84 696.30 838.25 696.55
  C 845.54 697.29 851.33 704.69 853.58 711.08
  C 861.40 733.33 852.71 764.00 824.50 764.00
  Q 520.12 764.04 215.75 763.69
  Q 196.00 763.67 176.25 763.51
  Q 172.08 763.47 167.90 763.50
  A 1.41 1.37 63.7 0 1 166.99 763.18
  L 158.51 756.18
  Z"
/>
<path fill="#c687ef" d="
  M 426.50 719.26
  C 415.89 719.27 406.57 706.92 405.52 697.20
  A 0.58 0.57 86.9 0 1 406.09 696.56
  L 593.65 696.52
  A 0.66 0.66 0.0 0 1 594.30 697.27
  C 592.92 707.01 585.06 719.08 574.00 719.10
  Q 500.25 719.23 426.50 719.26
  Z"
/>
<path fill="#c687ef" d="
  M 157.77 699.08
  L 158.10 724.01
  L 158.00 725.18
  L 145.85 725.03
  C 145.80 714.68 148.27 704.60 157.77 699.08
  Z"
/>
<path fill="#6b1891" d="
  M 128.26 713.20
  Q 129.42 714.56 127.74 716.69
  L 128.26 713.20
  Z"
/>
<path fill="#6b1891" d="
  M 145.85 725.03
  L 158.00 725.18
  Q 157.46 740.74 158.51 756.18
  Q 145.10 744.27 145.85 725.03
  Z"
/>
<path fill="#dfc0fc" d="
  M 170.70 783.33
  Q 173.81 782.73 176.93 783.27
  Q 181.47 784.06 182.64 784.10
  Q 187.89 784.28 193.32 784.31
  Q 181.34 786.06 170.70 783.33
  Z"
/>
<path fill="#fcfafd" d="
  M 122.89 805.07
  C 124.36 802.81 125.84 801.81 128.52 803.16
  Q 129.12 803.46 128.48 803.67
  L 123.15 805.41
  Q 122.55 805.60 122.89 805.07
  Z"
/>
</svg>
