 <svg  version="1.0" xmlns="http://www.w3.org/2000/svg"  width="300.000000pt" height="200.000000pt" viewBox="0 0 300.000000 200.000000"  preserveAspectRatio="xMidYMid meet">  <g transform="translate(0.000000,200.000000) scale(0.050000,-0.050000)" fill="#f71004" stroke="none"> <path d="M5652 3863 c-5 -7 49 -13 120 -13 70 0 128 6 128 13 0 7 -54 12 -120 12 -66 0 -124 -5 -128 -12z"/> <path d="M3113 3847 c-7 -8 -13 -38 -13 -68 0 -30 -18 -76 -40 -102 l-40 -47 -69 77 c-69 77 -150 92 -124 22 7 -16 -5 -47 -25 -67 -21 -21 -47 -54 -58 -75 -20 -35 -25 -34 -79 18 -84 80 -100 46 -40 -80 32 -66 -6 -100 -75 -68 -29 12 -77 23 -107 23 -30 0 -73 13 -94 29 -81 62 -90 24 -27 -118 49 -112 44 -121 -73 -113 -91 5 -112 -14 -59 -58 16 -13 25 -33 19 -42 -6 -10 0 -18 15 -19 46 -1 121 -77 108 -110 -17 -46 -250 127 -237 175 4 10 -3 13 -15 6 -11 -7 -20 -4 -20 6 0 10 -37 43 -83 73 -45 31 -118 92 -160 138 l-78 83 -37 -44 c-89 -106 -100 -491 -19 -648 73 -142 112 -99 52 59 -16 40 -30 114 -32 163 -2 50 -8 123 -15 164 -26 167 57 190 145 39 97 -167 245 -321 331 -344 93 -25 87 -38 -64 -134 -128 -82 -312 -249 -367 -333 -19 -30 -57 -62 -84 -72 -59 -23 -66 -49 -9 -34 67 17 45 -22 -43 -78 -71 -45 -79 -56 -50 -71 18 -11 42 -14 53 -7 11 7 20 4 20 -6 0 -10 -40 -34 -90 -53 -49 -19 -95 -42 -101 -52 -17 -28 135 -83 196 -71 70 14 69 7 -12 -105 -65 -91 -113 -199 -113 -258 0 -24 25 -27 135 -16 170 15 201 -1 157 -85 -39 -76 -66 -284 -37 -284 12 0 40 31 62 70 23 39 49 70 58 70 17 0 23 -13 122 -250 41 -99 84 -163 148 -220 67 -59 99 -108 125 -190 19 -60 69 -168 111 -240 42 -72 89 -176 105 -232 63 -214 104 -268 204 -268 85 0 115 22 70 50 -12 7 -16 21 -10 31 7 10 -9 65 -33 122 -32 74 -38 107 -21 112 13 5 24 23 24 42 -1 28 -3 29 -19 4 -28 -44 -43 -16 -47 85 -2 50 -11 86 -19 81 -8 -5 -15 22 -15 60 0 38 -3 82 -7 96 -3 15 -3 20 2 12 5 -8 21 -15 37 -15 16 0 28 -20 28 -49 0 -27 11 -56 25 -65 38 -24 161 -65 197 -66 18 0 53 -18 78 -40 25 -22 53 -40 61 -40 22 0 36 -100 15 -113 -10 -6 -14 -23 -9 -37 6 -14 5 -31 -2 -38 -19 -20 -22 -153 -3 -141 10 6 18 -12 18 -40 0 -43 9 -51 57 -51 125 0 87 454 -39 463 -74 4 -81 7 -107 42 -14 19 -29 31 -33 26 -4 -4 -10 34 -13 86 l-5 93 80 -90 c79 -89 100 -95 59 -18 -12 22 -15 58 -8 81 17 52 109 -96 109 -175 0 -26 10 -48 21 -48 12 0 15 10 7 23 -8 13 -5 18 6 11 10 -7 18 -52 18 -101 -2 -70 4 -85 23 -69 18 15 25 13 26 -7 0 -19 7 -18 26 7 31 41 73 12 73 -51 0 -22 6 -34 12 -27 26 25 70 -44 52 -81 -11 -19 -16 -51 -13 -70 3 -19 -6 -35 -20 -35 -15 0 -37 -13 -51 -30 -22 -26 1 -30 187 -30 l212 0 -21 46 c-21 46 9 173 35 147 25 -24 84 29 97 88 11 51 18 57 43 36 25 -20 28 -15 17 35 -9 40 -7 50 6 30 16 -22 23 -18 34 18 20 64 49 12 37 -68 -5 -34 -11 -95 -14 -134 -3 -40 -20 -96 -39 -125 -47 -72 -47 -73 74 -73 l109 0 -22 57 c-28 74 -7 133 40 112 19 -9 58 -16 86 -17 28 -1 73 -17 101 -35 27 -18 72 -30 100 -27 54 6 74 -45 30 -75 -12 -8 28 -14 88 -14 96 0 105 4 75 27 -19 14 -35 41 -35 59 0 18 -13 33 -29 33 -16 0 -43 20 -60 44 -17 25 -31 34 -31 20 0 -13 -18 -24 -40 -24 -30 0 -40 13 -40 51 0 69 56 174 84 157 12 -8 17 -5 10 6 -18 28 58 113 85 96 12 -7 16 -23 8 -34 -7 -13 -4 -16 8 -9 52 32 98 -136 104 -383 0 -26 10 -41 21 -34 11 7 18 92 15 199 -3 103 -12 183 -20 178 -8 -5 -9 4 -3 21 17 43 -12 84 -34 49 -10 -15 -18 -17 -18 -5 -1 68 -84 130 -132 99 -80 -53 -188 -159 -188 -186 0 -13 -19 -47 -43 -75 -52 -59 -97 -37 -97 47 -1 38 -6 45 -18 26 -14 -23 -19 -23 -26 -1 -12 36 43 141 66 127 10 -6 18 3 18 21 0 18 -8 27 -19 21 -10 -6 -4 18 14 54 29 57 34 60 44 25 13 -47 61 -63 61 -20 0 16 -9 30 -20 30 -40 0 -21 117 24 149 25 17 36 31 25 31 -10 0 -5 9 11 20 21 14 37 10 54 -13 23 -31 26 -31 38 0 7 18 25 33 41 33 16 0 24 9 17 20 -7 11 2 20 19 20 17 0 30 -7 29 -15 -2 -8 -1 -22 2 -30 3 -8 7 -22 9 -30 15 -53 38 -83 55 -72 13 7 10 18 -7 29 -15 9 -28 26 -29 37 -2 12 -5 23 -7 26 -20 25 -17 95 4 83 14 -8 -22 33 -80 91 -103 105 -125 141 -85 141 28 0 25 67 -5 99 -20 22 -19 25 9 15 31 -11 35 17 17 106 -7 32 -60 -100 -61 -150 0 -48 -5 -54 -22 -30 -16 23 -17 19 -7 -18 7 -26 2 -82 -12 -125 -22 -67 -21 -82 8 -114 41 -45 22 -69 -31 -41 -46 25 -54 19 -66 -44 -11 -58 -85 -210 -134 -275 -20 -26 -31 -56 -25 -65 18 -29 -6 -21 -40 14 -20 20 -28 49 -20 75 8 27 -3 19 -29 -22 -57 -90 -75 -82 -89 42 -7 59 -26 140 -43 180 -17 40 -32 108 -33 152 -5 129 -67 24 -67 -114 0 -117 4 -125 28 -61 15 42 18 41 47 -25 39 -86 63 -219 39 -219 -10 0 -28 -23 -41 -51 -26 -57 -71 -47 -53 11 20 64 -24 62 -51 -1 -15 -38 -35 -57 -52 -51 -15 6 -27 3 -27 -6 0 -26 -96 -122 -121 -122 -14 0 -19 17 -13 40 6 22 3 35 -6 30 -9 -6 -20 1 -25 15 -7 20 -16 19 -42 -2 -29 -24 -33 -23 -33 13 0 23 -9 47 -20 54 -12 7 -16 21 -10 30 6 9 2 23 -10 30 -12 7 -21 -14 -22 -54 0 -36 -6 -55 -11 -41 -6 14 -18 21 -27 15 -21 -13 -157 142 -190 218 -26 60 -18 139 12 121 10 -6 18 5 19 25 0 40 57 -43 58 -86 1 -13 23 -71 50 -130 l50 -108 -12 90 c-15 117 -60 278 -88 312 -34 40 -2 73 56 59 43 -11 48 -8 35 23 -34 83 -34 106 -2 106 17 0 39 1 47 1 8 1 21 -19 29 -45 8 -25 9 -3 3 49 -7 60 -4 95 9 95 12 0 27 19 35 43 10 31 18 36 29 16 11 -17 38 19 82 113 61 128 66 134 73 78 5 -33 26 -76 47 -96 36 -34 36 -39 5 -110 -41 -90 -41 -133 -1 -224 l31 -70 1 95 c1 52 9 95 17 95 55 0 65 118 16 191 -57 84 -66 134 -22 116 17 -6 36 -41 42 -78 34 -177 89 -146 89 49 0 180 1 185 45 178 51 -7 62 -208 16 -293 -29 -55 -46 -238 -23 -252 10 -6 25 27 33 74 8 47 19 74 24 60 14 -41 49 -28 36 13 -7 21 -2 45 11 53 17 11 21 -17 14 -107 -4 -67 -1 -117 8 -112 9 6 16 33 16 60 0 27 14 55 31 61 51 20 55 -6 13 -87 -75 -140 -107 -286 -64 -286 11 0 20 30 20 68 0 37 12 77 27 89 39 33 81 174 64 217 -9 20 -19 81 -23 136 -10 136 -25 194 -49 180 -10 -7 -18 8 -17 34 0 25 6 35 11 21 6 -14 18 -21 27 -15 15 9 44 -59 66 -160 5 -22 10 15 12 82 2 106 -4 127 -50 170 -96 89 -134 156 -108 188 13 15 18 38 11 49 -8 12 3 21 25 21 36 0 104 -127 104 -196 0 -13 10 -22 23 -19 37 8 62 -126 46 -245 -27 -203 -24 -441 6 -416 21 18 22 12 6 -32 -30 -79 11 -45 53 44 19 40 37 110 39 154 2 44 9 121 16 170 8 59 2 121 -19 180 -19 55 -27 67 -20 30 28 -168 34 -250 17 -250 -21 0 -91 357 -75 383 6 9 1 17 -11 17 -11 0 -19 11 -16 25 3 14 -5 23 -18 21 -12 -3 -33 24 -47 60 -13 35 -32 81 -43 101 -11 20 -14 43 -7 50 22 21 90 -78 90 -130 0 -34 10 -47 33 -43 22 4 39 -13 49 -51 9 -32 31 -74 49 -94 19 -21 38 -78 44 -127 10 -91 30 -104 82 -56 23 21 32 19 55 -10 42 -57 38 31 -6 95 -33 48 -33 49 7 14 39 -34 40 -33 32 23 -5 31 0 63 12 70 26 16 9 140 -31 230 -23 51 -25 70 -6 82 18 11 18 19 2 29 -13 8 -18 22 -12 31 6 10 -16 38 -50 63 -34 25 -57 57 -51 70 6 16 -14 29 -55 35 -35 6 -100 16 -144 24 -44 7 -101 16 -126 19 -25 3 -57 15 -71 27 -61 51 -173 84 -173 52 0 -16 15 -30 34 -30 25 0 28 -6 12 -22 -27 -27 -156 -32 -234 -9 -37 11 -54 10 -46 -3 7 -11 0 -19 -16 -19 -16 0 -24 6 -19 14 11 19 -158 99 -208 99 -68 0 -173 -44 -213 -90 -77 -86 -219 -55 -201 45 9 48 -7 46 -74 -11 -31 -26 -35 -25 -47 8 -25 80 -26 88 -7 88 10 0 19 16 19 35 -1 30 -3 31 -20 5 -14 -22 -24 -24 -35 -7 -8 13 -15 -52 -14 -145 0 -184 -7 -200 -50 -104 -15 35 -83 117 -149 182 -67 66 -102 108 -77 96 25 -13 45 -18 45 -12 0 22 -110 150 -128 150 -10 0 -33 15 -51 34 -51 54 9 122 63 72 20 -18 36 -22 36 -10 0 12 -19 35 -42 51 -23 17 -37 39 -30 49 15 26 -40 71 -67 55 -12 -8 -21 1 -21 18 0 18 18 32 45 33 25 0 34 6 20 11 -52 21 13 92 72 78 35 -8 44 -6 25 6 -41 28 -5 68 50 54 37 -9 44 -5 35 21 -11 29 85 -3 130 -43 14 -12 -80 -149 -95 -140 -9 5 -15 -3 -15 -19 0 -16 7 -24 16 -18 10 6 17 -8 17 -31 0 -22 -9 -41 -20 -41 -12 0 -8 -20 9 -45 37 -57 30 -168 -10 -158 -16 3 -21 -1 -12 -10 9 -9 26 -17 37 -17 12 0 23 -30 26 -67 3 -37 21 -82 41 -100 22 -21 29 -23 19 -5 -9 15 -19 56 -23 90 -3 34 -11 83 -17 109 -8 32 -4 42 11 32 17 -10 18 -3 4 24 -11 20 -16 48 -11 61 5 13 -1 56 -12 96 -36 132 40 221 107 126 l31 -45 0 45 c0 24 -7 44 -15 44 -32 0 -56 72 -45 130 26 124 126 -150 150 -410 5 -60 14 -128 18 -150 5 -22 10 -47 10 -55 4 -32 42 -13 74 36 44 67 16 92 -33 29 -21 -28 -38 -43 -39 -35 0 9 38 57 84 107 76 82 121 166 74 137 -10 -7 -15 -18 -11 -25 4 -8 -17 -34 -47 -58 l-55 -45 -12 91 c-10 71 -5 99 21 125 31 31 31 33 -9 39 -61 9 -163 224 -107 224 10 0 23 -11 28 -25 6 -17 24 -11 59 21 l50 46 11 -42 c12 -47 74 -29 131 38 23 29 25 28 14 -6 -7 -23 2 -47 24 -63 33 -24 32 -29 -11 -75 -78 -82 -46 -155 189 -434 157 -187 278 -307 262 -260 -5 17 4 46 20 65 28 32 25 37 -37 64 -62 27 -64 30 -18 31 44 1 40 6 -30 39 -61 29 -70 38 -37 39 24 1 47 -5 50 -14 6 -14 240 -81 317 -90 17 -2 28 8 25 22 -4 20 4 21 35 4 23 -12 37 -29 31 -38 -18 -30 104 -128 142 -114 30 12 26 19 -24 50 -80 49 -136 115 -120 141 9 14 41 -1 87 -39 40 -33 81 -60 90 -60 9 0 46 -22 82 -50 36 -27 71 -44 79 -37 7 8 13 5 13 -6 0 -11 38 -40 85 -64 201 -106 293 -179 294 -233 0 -11 -8 -6 -19 10 -30 46 -23 1 20 -128 22 -65 39 -142 39 -170 -1 -36 -10 -22 -27 43 -14 53 -32 102 -39 109 -23 23 -14 -67 16 -151 31 -87 22 -283 -13 -283 -11 0 -11 -13 0 -32 10 -17 10 -77 1 -135 -22 -139 -16 -156 123 -327 13 -16 12 -28 -1 -37 -19 -11 -14 -44 17 -127 7 -18 2 -23 -13 -14 -17 10 -22 -5 -18 -52 3 -44 -3 -64 -20 -61 -31 6 -31 -6 -1 -61 13 -24 27 -60 30 -81 11 -63 44 -110 104 -145 76 -45 114 -198 53 -212 -20 -4 -24 -15 -13 -33 17 -28 18 -28 158 46 58 30 71 31 110 6 55 -36 162 -64 146 -38 -6 10 11 23 39 28 27 5 54 2 60 -6 11 -18 -26 -46 -68 -52 -52 -8 -49 -27 4 -27 29 0 53 11 53 25 0 15 6 17 15 5 28 -37 106 -33 196 11 49 23 104 38 121 31 66 -25 178 10 203 64 37 77 31 90 -32 78 -31 -7 -67 -2 -78 9 -14 14 -64 14 -162 -1 -137 -21 -352 -27 -273 -7 80 20 85 226 9 359 -23 40 -29 70 -17 77 44 27 -132 149 -216 149 -20 0 -27 7 -16 15 11 8 21 60 23 115 1 55 4 116 5 135 1 27 21 16 82 -45 95 -95 97 -110 25 -148 -51 -27 -52 -30 -15 -43 142 -50 252 -114 301 -175 74 -92 89 -79 89 74 0 132 -27 240 -73 294 -35 41 -34 58 3 58 57 0 30 30 -62 68 -68 28 -85 42 -65 56 18 13 2 16 -49 9 -116 -16 -246 78 -265 192 -8 47 -36 111 -63 143 -31 37 -45 74 -38 99 6 23 1 53 -11 67 -17 20 -14 26 11 26 46 0 39 33 -10 46 -29 8 -37 20 -26 38 38 60 25 76 -61 76 -52 0 -96 12 -111 30 -21 26 -16 30 38 30 90 0 78 24 -68 139 -157 123 -167 161 -40 161 84 0 121 29 65 51 -45 17 -27 116 30 173 30 30 55 67 55 82 0 41 59 84 155 111 111 32 116 83 8 83 -129 0 -198 -35 -224 -112 -26 -80 -34 -82 -130 -25 l-73 44 57 29 57 30 -80 35 c-44 19 -102 59 -130 89 -27 30 -95 77 -150 104 -97 47 -49 61 57 16 76 -33 24 59 -57 100 -44 22 -84 43 -89 46 -6 3 3 14 19 24 43 27 19 39 -122 63 -157 27 -186 49 -102 79 103 36 69 78 -63 78 -111 1 -189 99 -111 141 59 32 15 58 -97 59 -47 0 -83 7 -80 15 2 8 -8 44 -23 80 -32 78 -149 97 -171 27 -40 -126 -161 -100 -142 30 11 72 8 88 -18 88 -17 0 -31 -13 -31 -28 0 -15 -18 -49 -41 -75 -40 -46 -41 -46 -29 -4 6 24 3 49 -8 56 -29 18 -82 -70 -82 -137 l0 -60 41 44 c63 68 64 52 4 -34 -68 -95 -73 -91 -77 64 -3 88 1 112 14 84 13 -28 15 -16 6 40 -16 107 -37 135 -75 97z m-104 -238 c44 -41 46 -52 26 -117 -24 -81 -11 -110 35 -72 25 21 30 19 30 -11 0 -33 3 -33 42 3 23 21 44 35 45 32 12 -24 133 47 133 78 0 21 14 38 31 38 18 0 25 -10 18 -22 -10 -16 -3 -16 27 0 23 12 55 17 71 10 18 -7 39 5 52 30 31 59 88 56 70 -3 -34 -107 -406 -512 -447 -486 -35 21 -26 44 47 124 38 42 66 79 62 83 -12 12 -122 -51 -151 -86 -49 -59 -98 -75 -85 -28 10 38 7 40 -32 15 -24 -15 -43 -33 -43 -42 0 -8 -8 -15 -19 -15 -10 0 -6 25 10 55 16 30 29 80 29 110 0 30 10 55 21 55 12 0 16 -9 9 -20 -8 -12 4 -13 33 -3 25 9 49 29 54 45 8 23 4 24 -22 2 -40 -33 -64 24 -44 104 8 33 5 52 -9 52 -22 0 -29 -31 -27 -120 1 -32 -2 -37 -8 -15 -9 30 -22 25 -99 -38 -49 -40 -84 -77 -79 -83 6 -6 -1 -24 -14 -40 -14 -17 18 -7 71 23 115 64 102 23 -21 -66 l-85 -61 0 65 c0 36 -5 101 -11 145 -6 53 -4 67 7 41 12 -27 22 -31 32 -14 8 13 23 18 33 12 22 -13 24 21 6 89 l-13 47 -37 -47 c-32 -41 -35 -42 -24 -8 7 22 32 61 55 87 l42 47 10 -96 10 -95 55 48 c53 47 54 51 25 106 -52 99 -8 123 79 42z m825 -81 l45 -12 -45 -37 c-40 -33 -41 -37 -9 -50 19 -7 35 -26 35 -41 0 -15 11 -28 25 -29 14 0 7 -14 -15 -31 -37 -29 -33 -31 65 -25 89 6 100 3 72 -18 -19 -14 -53 -25 -76 -25 -22 0 -54 -10 -71 -22 -23 -16 -17 -18 27 -9 43 10 53 6 41 -13 -12 -21 -9 -21 14 -2 18 15 40 17 58 6 37 -23 -8 -44 -79 -36 -66 8 -72 -31 -10 -65 47 -25 55 -24 72 7 26 47 56 43 43 -6 -11 -43 73 -40 161 4 32 17 33 14 14 -23 -13 -23 -31 -37 -41 -31 -9 6 -22 3 -28 -7 -6 -10 -34 -13 -62 -8 -32 6 -66 -3 -91 -26 -21 -19 -39 -25 -39 -13 0 13 -13 18 -30 11 -40 -15 -38 -47 3 -47 19 0 28 -6 20 -13 -37 -38 108 -91 262 -95 47 -1 85 -8 85 -16 0 -28 -225 -121 -327 -136 -57 -8 -91 -16 -77 -18 15 -1 21 -11 14 -22 -7 -11 -2 -20 10 -20 12 0 16 -10 8 -23 -10 -16 2 -19 38 -10 28 7 75 3 103 -10 40 -18 58 -18 76 0 17 17 9 23 -36 24 l-59 0 46 39 c42 35 52 35 127 9 111 -39 137 -36 77 11 l-50 39 61 -17 c34 -9 90 -32 124 -50 92 -47 116 -41 77 18 -32 49 -32 50 20 50 45 0 49 -5 28 -30 -16 -20 -17 -30 -3 -30 12 0 17 -13 10 -30 -6 -16 -28 -30 -48 -30 -20 0 -43 -10 -51 -23 -9 -14 -5 -18 9 -9 13 8 43 0 67 -17 25 -17 69 -31 99 -31 30 0 61 -10 69 -23 10 -16 -3 -20 -41 -12 -39 7 -48 4 -32 -12 11 -11 55 -20 96 -18 75 3 75 3 15 -16 -33 -10 -71 -15 -84 -10 -13 5 -28 -2 -33 -15 -5 -13 -11 -9 -11 10 -2 35 -68 83 -88 64 -15 -16 -94 29 -94 54 0 32 -53 78 -90 78 -18 0 -27 -9 -20 -20 7 -12 -10 -15 -46 -8 -32 7 -100 -3 -153 -21 -89 -30 -104 -30 -211 2 l-115 34 38 90 c21 50 32 104 24 122 -8 17 -12 99 -9 181 4 135 -33 393 -69 485 -14 38 -4 41 65 23z m-1193 -142 c0 13 9 9 20 -10 14 -24 10 -54 -14 -105 -35 -72 -82 -101 -59 -36 8 21 -3 15 -27 -15 -23 -29 -40 -39 -41 -23 0 22 -6 23 -29 4 -16 -14 -39 -19 -50 -12 -12 8 -21 4 -21 -8 0 -12 14 -27 30 -34 33 -12 40 -81 13 -123 -14 -22 -23 -21 -48 4 -31 31 -37 257 -7 286 6 7 12 3 12 -9 0 -35 65 -40 126 -11 52 26 58 70 7 64 -52 -6 -71 4 -60 31 9 26 20 26 79 1 50 -21 68 -22 69 -4z m913 -206 c-2 -10 14 -31 36 -48 30 -23 33 -31 10 -32 -27 -1 -27 -3 0 -22 23 -16 24 -24 5 -31 -37 -15 -30 -47 10 -47 20 0 26 -7 15 -15 -11 -8 -23 -28 -27 -45 -3 -16 -14 -33 -25 -37 -10 -3 -13 -15 -7 -25 20 -32 -50 -43 -111 -18 -39 16 -60 40 -61 67 -2 42 -2 42 -19 3 -16 -38 -17 -38 -19 5 0 25 22 81 49 125 28 44 50 87 50 96 0 30 44 61 72 51 15 -6 25 -18 22 -27z m-849 -39 c13 -46 1 -61 -48 -61 -31 0 -33 7 -13 50 27 60 48 64 61 11z m545 -261 c-6 -9 7 -12 29 -6 25 7 58 -9 94 -45 l55 -55 -67 -32 c-52 -25 -69 -26 -76 -7 -5 14 -17 20 -27 14 -10 -6 -19 9 -20 35 0 25 -6 35 -11 21 -21 -51 -49 -23 -40 40 5 36 10 67 11 69 1 3 15 0 32 -7 16 -6 25 -18 20 -27z m1196 -100 c14 -12 -38 -14 -121 -3 -14 2 -25 16 -25 32 0 29 104 9 146 -29z m-893 -66 c93 -42 207 -117 207 -136 0 -10 14 -18 31 -18 17 0 26 -8 20 -18 -6 -9 10 -23 34 -29 75 -20 151 -14 160 12 7 18 20 16 49 -10 21 -19 47 -28 56 -20 9 8 10 3 1 -11 -9 -17 3 -47 32 -78 l47 -51 -47 24 c-26 14 -52 42 -58 64 -7 26 -21 35 -47 26 -69 -21 -187 -13 -285 21 -53 18 -101 29 -106 23 -5 -5 36 -24 92 -43 129 -42 127 -46 -22 -45 -111 1 -119 4 -85 31 35 27 34 28 -22 18 -55 -9 -56 -8 -21 18 35 25 29 28 -65 28 -60 0 -104 -9 -104 -21 0 -33 -34 -4 -45 38 -13 49 58 203 93 203 15 0 53 -12 85 -26z m-1229 -23 c19 -27 -23 -51 -84 -49 -46 1 -47 2 -10 18 22 9 33 18 24 19 -9 0 -11 10 -4 21 14 23 54 18 74 -9z m-171 -82 c7 -18 3 -41 -9 -53 -12 -12 -17 -48 -10 -79 8 -41 3 -57 -16 -57 -17 0 -30 -25 -32 -64 -6 -82 -31 -106 -82 -78 -31 17 -43 15 -52 -9 -6 -17 -3 -26 7 -20 10 7 24 2 32 -10 7 -12 25 -17 40 -11 14 5 30 0 34 -13 4 -12 28 12 54 54 26 41 75 87 109 101 l62 26 -70 20 c-39 11 -54 21 -34 22 112 6 439 -250 471 -368 41 -150 -52 -213 -148 -100 -84 98 -94 151 -19 102 57 -37 130 -15 130 40 0 17 -10 24 -22 17 -26 -16 -178 30 -178 54 0 23 -85 75 -157 96 -57 16 -70 11 -142 -60 -44 -44 -72 -79 -62 -79 9 0 13 -17 7 -38 -5 -21 -2 -42 8 -48 10 -6 19 12 22 40 8 97 104 141 184 84 24 -17 20 -19 -17 -11 -41 9 -45 4 -34 -38 11 -47 -20 -64 -96 -51 -20 4 2 -74 38 -130 20 -33 21 -48 3 -68 -19 -20 -18 -23 0 -12 14 7 43 -5 65 -27 23 -23 41 -35 41 -29 0 7 14 2 30 -12 45 -37 36 -61 -15 -42 -58 21 -113 6 -72 -20 21 -14 20 -17 -6 -18 -19 0 -37 -7 -42 -15 -5 -8 -5 -2 -1 13 6 23 2 23 -25 1 -17 -14 -30 -17 -28 -7 12 60 -4 88 -50 88 -35 0 -46 9 -39 28 10 27 -65 86 -84 67 -47 -47 225 -322 276 -280 96 77 296 -8 296 -126 0 -41 56 -87 106 -88 50 -1 38 72 -22 137 -25 27 -41 61 -36 74 5 14 1 28 -10 32 -46 15 39 79 120 90 l87 12 -14 -128 c-28 -278 -24 -269 -117 -289 -182 -41 -97 -246 112 -269 62 -6 109 -9 105 -5 -4 4 14 29 40 54 86 86 87 211 2 227 -23 5 -29 -3 -21 -24 17 -44 -43 -62 -108 -33 l-53 24 50 38 c27 20 80 45 119 54 55 13 86 41 146 132 89 135 140 160 303 148 74 -5 139 2 170 17 28 14 67 31 86 36 20 6 44 31 55 56 40 98 200 192 200 119 0 -13 -20 -24 -45 -24 l-45 -2 45 -18 c42 -17 63 -42 30 -37 -62 10 -89 -3 -65 -32 21 -25 17 -30 -23 -31 -44 0 -44 -2 -9 -22 35 -20 33 -24 -27 -50 -46 -19 -62 -36 -53 -58 6 -17 3 -26 -6 -20 -10 6 -39 3 -65 -8 -26 -10 -37 -19 -25 -20 36 -2 24 -61 -14 -61 -47 0 -266 -251 -251 -289 7 -19 1 -25 -18 -18 -36 14 -37 36 -4 71 14 14 25 35 25 46 0 45 81 150 115 150 21 0 33 7 27 16 -5 9 8 32 29 50 58 50 48 75 -26 61 -108 -21 -128 -40 -185 -181 -30 -75 -71 -176 -91 -226 -33 -81 -42 -89 -95 -84 -34 4 -88 -11 -126 -35 -57 -34 -61 -41 -25 -41 51 0 79 -57 36 -73 -16 -6 -56 -1 -89 13 -44 18 -75 19 -122 2 -43 -15 -72 -15 -88 -2 -13 11 -29 14 -36 7 -43 -43 -245 207 -266 330 -6 32 -162 183 -189 183 -10 0 -19 17 -19 38 0 25 -19 41 -61 49 -34 7 -59 23 -55 38 3 14 -38 70 -90 125 -86 90 -91 101 -54 110 39 10 38 13 -19 76 -57 62 -58 66 -20 80 37 14 35 18 -21 51 -33 19 -60 42 -60 51 0 24 253 262 279 262 49 0 -4 40 -55 42 -50 2 -49 4 21 33 41 17 75 38 75 48 0 19 -87 3 -144 -26 -103 -53 -68 14 49 92 115 78 150 86 168 40z m2173 -61 c35 -18 80 -47 99 -64 20 -17 53 -32 73 -34 51 -3 194 -129 153 -133 -17 -2 -40 -4 -51 -5 -11 -1 -20 5 -19 14 2 53 -65 77 -178 64 -86 -10 -137 -5 -193 19 -90 37 -80 66 12 33 139 -48 172 -22 43 34 -130 56 -149 75 -90 90 64 17 87 14 151 -18z m187 -243 c49 -60 107 -195 85 -195 -3 0 7 -22 21 -50 17 -33 2 -23 -46 30 -39 44 -72 86 -72 93 -1 8 -39 20 -86 27 -47 8 -105 27 -130 42 -33 21 -45 22 -45 5 0 -14 -13 -7 -29 14 -41 54 -38 74 8 50 21 -12 60 -21 86 -21 26 0 65 -13 86 -29 62 -47 80 -36 30 18 -45 48 -42 91 7 91 14 0 52 -34 85 -75z m-1104 -88 c51 -23 67 -65 34 -85 -44 -27 -284 13 -259 43 51 62 144 79 225 42z m-489 -164 c0 -10 23 -2 52 16 70 46 80 28 35 -63 -60 -123 -194 -87 -178 48 3 31 8 70 9 86 3 31 81 -52 82 -87z m1020 84 c-110 -46 -160 -55 -160 -29 0 42 23 52 118 51 83 -1 87 -4 42 -22z m-560 -63 c0 -36 -55 -110 -100 -134 -36 -19 -18 60 33 145 15 25 67 17 67 -11z m888 3 c48 -22 87 -77 54 -77 -8 0 -42 22 -74 50 -63 54 -57 63 20 27z m-36 -91 c58 -71 79 -86 84 -60 13 65 37 34 31 -39 -3 -42 11 -112 34 -163 24 -55 39 -132 38 -202 l0 -112 -41 119 c-23 65 -54 137 -70 159 -35 52 -36 72 0 72 53 0 -12 92 -97 138 -182 98 -245 182 -136 182 71 0 89 -10 157 -94z m-1943 47 c-6 -14 -2 -50 9 -79 26 -66 -20 -55 -67 17 -43 67 -39 89 18 89 33 0 46 -9 40 -27z m971 -13 c0 -58 -86 -109 -139 -81 -22 12 -41 36 -41 52 0 35 23 38 54 7 27 -27 66 -7 66 33 0 16 14 29 30 29 17 0 30 -18 30 -40z m310 10 c66 -16 165 -29 220 -30 l100 -2 -79 -39 c-43 -21 -97 -39 -120 -39 -22 0 -66 -13 -97 -29 -30 -16 -68 -24 -85 -18 -18 7 -29 -1 -29 -21 0 -18 -8 -32 -17 -32 -9 0 -16 32 -14 70 2 43 -5 68 -18 64 -11 -4 -21 -16 -22 -26 -6 -117 -292 -211 -366 -121 -35 42 -4 55 100 41 118 -16 179 18 237 132 23 44 47 80 55 80 8 0 69 -14 135 -30z m1304 -150 c30 -1 31 -4 7 -19 -25 -16 -24 -25 10 -62 21 -24 36 -45 32 -46 -10 -4 16 -141 56 -303 37 -145 44 -496 12 -549 -9 -14 -18 -43 -19 -64 -1 -21 -11 -37 -22 -36 -11 1 -19 13 -18 27 2 16 -18 25 -48 24 -36 -1 -52 9 -56 38 -8 49 -15 313 -9 340 2 11 6 61 9 110 3 50 7 106 8 126 7 63 39 18 52 -71 7 -47 19 -125 26 -175 8 -49 15 -123 15 -163 1 -40 7 -69 15 -65 7 5 13 24 13 43 -1 19 5 87 13 150 10 89 4 147 -27 250 -22 74 -47 171 -54 215 -24 131 -154 276 -176 195 -5 -19 -9 -8 -8 25 0 33 -10 85 -22 116 -13 31 -23 61 -23 65 0 5 40 -31 89 -81 49 -49 105 -90 125 -90z m-2506 133 c-13 -34 43 -84 61 -54 19 30 51 26 51 -7 0 -30 -42 -52 -98 -52 -38 0 -90 90 -71 121 18 30 69 22 57 -8z m2131 -325 c1 -34 -5 -68 -13 -76 -17 -17 -89 227 -74 251 6 9 1 17 -11 17 -11 0 -21 20 -20 45 1 70 117 -162 118 -237z m-1509 132 c7 -22 21 -40 31 -40 28 0 23 -54 -12 -121 -41 -80 -130 -60 -112 25 1 8 -9 10 -24 4 -15 -5 -39 5 -54 23 -29 35 15 89 73 89 13 0 29 14 35 30 16 42 48 37 63 -10z m780 -361 c19 -87 3 -91 -36 -9 -27 58 -28 70 -5 70 15 0 34 -28 41 -61z m-670 -380 c0 -12 8 -16 19 -10 10 6 25 1 33 -12 9 -15 5 -18 -10 -8 -16 10 -22 4 -18 -16 3 -17 -3 -32 -14 -33 -11 -2 -32 -13 -46 -25 -19 -16 -35 -13 -58 11 -30 30 -29 35 16 72 54 46 78 52 78 21z m1370 -109 c49 -42 68 -70 49 -70 -35 0 -70 27 -128 95 -56 67 -12 53 79 -25z m-1370 -39 c0 -15 -14 -42 -31 -60 -18 -17 -24 -31 -15 -32 9 0 -33 -25 -94 -54 -117 -58 -128 -60 -190 -37 -120 44 -164 73 -197 131 l-37 64 66 -34 c115 -60 293 -60 398 -1 108 60 100 58 100 23z m-538 -255 c-21 -51 -48 -98 -60 -105 -31 -19 -27 13 7 62 16 23 24 47 17 54 -7 7 -1 36 14 63 46 85 64 23 22 -74z m2298 83 c12 -22 31 -35 41 -28 10 6 19 -5 19 -25 0 -48 57 -130 81 -116 10 7 23 -13 30 -44 7 -31 20 -74 30 -96 37 -81 15 -122 -75 -136 -52 -8 -63 -4 -60 27 1 20 11 31 22 24 11 -6 13 3 6 22 -7 18 -4 33 7 33 10 0 19 11 19 24 0 19 -5 19 -24 0 -42 -42 -56 -26 -56 65 0 87 -31 143 -43 79 -6 -29 -11 -28 -41 5 -47 53 -16 108 37 66 35 -27 35 -26 5 11 -63 76 -83 130 -49 130 16 0 39 -18 51 -41z m280 -79 c13 0 5 -105 -12 -158 -23 -71 -68 53 -55 150 12 85 16 91 33 52 11 -24 26 -44 34 -44z m-2365 -48 c3 -27 -4 -55 -15 -62 -11 -7 -15 0 -9 16 6 15 -3 39 -19 52 -16 14 -25 38 -18 54 16 42 56 2 61 -60z m113 15 c14 -36 -6 -127 -28 -127 -18 0 -39 71 -40 134 0 50 49 45 68 -7z m2425 -407 c-9 -43 -4 -60 15 -60 15 0 33 -13 39 -28 16 -43 -86 -62 -124 -23 -29 28 -28 31 3 31 27 0 32 11 22 49 -13 53 2 91 36 91 13 0 16 -23 9 -60z m-1810 -150 c-7 -11 -13 -29 -13 -40 0 -11 -17 -23 -38 -27 -29 -5 -35 1 -25 27 7 18 13 53 13 77 1 35 4 37 20 13 16 -25 20 -23 21 10 2 40 2 40 18 0 9 -22 11 -49 4 -60z"/> <path d="M3352 3405 c-8 -8 -41 -16 -73 -17 -32 -2 -74 -10 -93 -19 -20 -8 -48 -18 -63 -21 -44 -8 -50 -26 -10 -26 20 0 78 -4 127 -8 99 -7 226 57 175 89 -31 20 -45 21 -63 2z"/> <path d="M3876 2796 c-9 -48 -8 -48 120 -32 159 19 170 27 60 44 -47 8 -105 19 -128 24 -33 9 -45 0 -52 -36z"/> <path d="M5715 3806 c35 -5 98 -5 140 -1 41 5 12 8 -65 8 -77 1 -111 -3 -75 -7z"/> <path d="M1740 2983 c0 -54 118 -179 138 -146 39 63 -6 173 -73 179 -53 5 -65 -1 -65 -33z"/> <path d="M2860 2961 c0 -42 74 -107 91 -79 9 15 7 19 -6 11 -13 -8 -25 5 -29 30 -6 45 -56 78 -56 38z"/> <path d="M2692 2764 c-7 -12 0 -54 16 -93 16 -38 29 -107 28 -152 -1 -89 20 -126 58 -102 26 16 13 103 -16 103 -9 0 -12 26 -6 57 13 64 -56 225 -80 187z"/> <path d="M3047 2563 c-6 -22 -22 -36 -37 -30 -14 5 -32 0 -39 -12 -7 -11 -4 -21 8 -21 13 0 7 -22 -12 -52 -33 -50 -33 -52 4 -44 22 4 38 22 36 40 -1 22 8 29 28 21 20 -8 27 -2 20 17 -5 15 3 43 19 61 21 24 22 37 6 47 -13 8 -27 -3 -33 -27z"/> <path d="M2397 2556 c-21 -15 -19 -17 7 -9 19 6 40 3 47 -8 6 -10 20 -19 31 -19 11 0 14 11 6 23 -10 16 -4 20 20 11 19 -8 29 -6 23 4 -14 23 -100 22 -134 -2z"/> <path d="M3100 2465 c-34 -13 -80 -69 -70 -85 3 -6 -22 -12 -57 -15 -102 -7 -110 -10 -99 -39 11 -27 40 -23 146 20 28 11 65 18 83 16 19 -2 39 6 46 17 8 12 -2 21 -21 21 -32 0 -32 3 2 40 36 40 27 47 -30 25z"/> <path d="M2523 2381 c11 -32 38 -74 61 -94 l41 -37 -41 73 c-23 40 -37 77 -32 83 5 5 -4 14 -20 20 -24 10 -26 2 -9 -45z"/> <path d="M4735 2207 c14 -6 20 -19 14 -29 -13 -21 13 -23 59 -6 47 18 18 48 -44 46 -30 0 -43 -6 -29 -11z"/> <path d="M4550 1660 c-7 -11 -4 -20 6 -20 9 0 28 -24 42 -53 13 -29 28 -47 34 -41 11 10 -46 134 -61 134 -5 0 -14 -9 -21 -20z"/> <path d="M3775 1069 c-37 -99 -13 -103 37 -5 18 34 24 68 14 78 -10 10 -32 -21 -51 -73z"/> <path d="M3492 931 c-29 -48 -51 -100 -51 -115 1 -14 10 -8 19 14 15 35 18 32 21 -20 3 -47 9 -36 26 47 13 58 30 100 38 91 8 -8 15 5 15 29 0 61 -9 55 -68 -46z"/> <path d="M3663 719 c-51 -132 -54 -145 -28 -154 19 -6 97 249 82 265 -4 4 -29 -46 -54 -111z"/> <path d="M3562 487 c-21 -76 -13 -124 9 -55 7 21 20 53 30 72 11 21 11 39 0 46 -11 6 -28 -22 -39 -63z"/> <path d="M4772 176 c-32 -45 -31 -46 22 -57 31 -6 63 -1 71 10 26 38 16 53 -24 32 -55 -30 -70 -26 -41 9 14 17 21 36 15 42 -6 6 -26 -10 -43 -36z"/> </g> </svg> 